<?xml version="1.0" encoding="UTF-8" standalone="no"?><svg xmlns="http://www.w3.org/2000/svg" xmlns:xlink="http://www.w3.org/1999/xlink" contentStyleType="text/css" height="964px" preserveAspectRatio="none" style="width:1356px;height:964px;background:#FFFFFF;" version="1.1" viewBox="0 0 1356 964" width="1356px" zoomAndPan="magnify"><defs/><g><rect fill="none" height="26.2969" id="_title" style="stroke:none;stroke-width:1.0;" width="341" x="500.5" y="5"/><text fill="#000000" font-family="sans-serif" font-size="14" font-weight="bold" lengthAdjust="spacing" textLength="331" x="505.5" y="22.9951">Diagrama de componentes - PokemonApp</text><!--MD5=[8378304db17a0b0bc18ffedfb430d4c0]
cluster Presentación--><g id="cluster_Presentación"><path d="M1009.5,511.7969 L1114.5,511.7969 A3.75,3.75 0 0 1 1117,514.2969 L1124,534.0938 L1166.5,534.0938 A2.5,2.5 0 0 1 1169,536.5938 L1169,623.2969 A2.5,2.5 0 0 1 1166.5,625.7969 L1009.5,625.7969 A2.5,2.5 0 0 1 1007,623.2969 L1007,514.2969 A2.5,2.5 0 0 1 1009.5,511.7969 " fill="none" style="stroke:#000000;stroke-width:1.5;"/><line style="stroke:#000000;stroke-width:1.5;" x1="1007" x2="1124" y1="534.0938" y2="534.0938"/><text fill="#000000" font-family="sans-serif" font-size="14" font-weight="bold" lengthAdjust="spacing" textLength="104" x="1011" y="526.792">Presentación</text></g><!--MD5=[19a02f9b9678feac4565b792a4c8de1d]
cluster Aplicación / Controladores--><g id="cluster_Aplicación / Controladores"><path d="M735.5,43.2969 L944.5,43.2969 A3.75,3.75 0 0 1 947,45.7969 L954,65.5938 L1008.5,65.5938 A2.5,2.5 0 0 1 1011,68.0938 L1011,455.7969 A2.5,2.5 0 0 1 1008.5,458.2969 L735.5,458.2969 A2.5,2.5 0 0 1 733,455.7969 L733,45.7969 A2.5,2.5 0 0 1 735.5,43.2969 " fill="none" style="stroke:#000000;stroke-width:1.5;"/><line style="stroke:#000000;stroke-width:1.5;" x1="733" x2="954" y1="65.5938" y2="65.5938"/><text fill="#000000" font-family="sans-serif" font-size="14" font-weight="bold" lengthAdjust="spacing" textLength="208" x="737" y="58.292">Aplicación / Controladores</text></g><!--MD5=[ff300f0c99218553ac745c95812a049a]
cluster Dominio--><g id="cluster_Dominio"><path d="M523.5,674.7969 L587.5,674.7969 A3.75,3.75 0 0 1 590,677.2969 L597,697.0938 L935.5,697.0938 A2.5,2.5 0 0 1 938,699.5938 L938,955.2969 A2.5,2.5 0 0 1 935.5,957.7969 L523.5,957.7969 A2.5,2.5 0 0 1 521,955.2969 L521,677.2969 A2.5,2.5 0 0 1 523.5,674.7969 " fill="none" style="stroke:#000000;stroke-width:1.5;"/><line style="stroke:#000000;stroke-width:1.5;" x1="521" x2="597" y1="697.0938" y2="697.0938"/><text fill="#000000" font-family="sans-serif" font-size="14" font-weight="bold" lengthAdjust="spacing" textLength="63" x="525" y="689.792">Dominio</text></g><!--MD5=[1148529c0a93159297910a29c4462cd9]
cluster Creación / Catálogos--><g id="cluster_Creación / Catálogos"><path d="M315.5,511.7969 L479.5,511.7969 A3.75,3.75 0 0 1 482,514.2969 L489,534.0938 L494.5,534.0938 A2.5,2.5 0 0 1 497,536.5938 L497,786.2969 A2.5,2.5 0 0 1 494.5,788.7969 L315.5,788.7969 A2.5,2.5 0 0 1 313,786.2969 L313,514.2969 A2.5,2.5 0 0 1 315.5,511.7969 " fill="none" style="stroke:#000000;stroke-width:1.5;"/><line style="stroke:#000000;stroke-width:1.5;" x1="313" x2="489" y1="534.0938" y2="534.0938"/><text fill="#000000" font-family="sans-serif" font-size="14" font-weight="bold" lengthAdjust="spacing" textLength="163" x="317" y="526.792">Creación / Catálogos</text></g><!--MD5=[3e2dd21ebbd630ac6ce583d49a54931c]
cluster Persistencia--><g id="cluster_Persistencia"><path d="M523.5,344.2969 L621.5,344.2969 A3.75,3.75 0 0 1 624,346.7969 L631,366.5938 L706.5,366.5938 A2.5,2.5 0 0 1 709,369.0938 L709,619.7969 A2.5,2.5 0 0 1 706.5,622.2969 L523.5,622.2969 A2.5,2.5 0 0 1 521,619.7969 L521,346.7969 A2.5,2.5 0 0 1 523.5,344.2969 " fill="none" style="stroke:#000000;stroke-width:1.5;"/><line style="stroke:#000000;stroke-width:1.5;" x1="521" x2="631" y1="366.5938" y2="366.5938"/><text fill="#000000" font-family="sans-serif" font-size="14" font-weight="bold" lengthAdjust="spacing" textLength="97" x="525" y="359.292">Persistencia</text></g><!--MD5=[3a2350270bdbd997d5561dc2423e01b9]
entity ConsoleView--><g id="elem_ConsoleView"><rect fill="#F1F1F1" height="62.5938" rx="2.5" ry="2.5" style="stroke:#181818;stroke-width:0.5;" width="129" x="1023.5" y="546.7969"/><rect fill="#F1F1F1" height="10" style="stroke:#181818;stroke-width:0.5;" width="15" x="1132.5" y="551.7969"/><rect fill="#F1F1F1" height="2" style="stroke:#181818;stroke-width:0.5;" width="4" x="1130.5" y="553.7969"/><rect fill="#F1F1F1" height="2" style="stroke:#181818;stroke-width:0.5;" width="4" x="1130.5" y="557.7969"/><text fill="#000000" font-family="sans-serif" font-size="14" lengthAdjust="spacing" textLength="89" x="1038.5" y="579.792">ConsoleView</text><text fill="#000000" font-family="sans-serif" font-size="14" lengthAdjust="spacing" textLength="40" x="1038.5" y="596.0889">(view)</text></g><!--MD5=[abccbe251444ce7a7c391d76d7814416]
entity PokemonApp--><g id="elem_PokemonApp"><rect fill="#F1F1F1" height="62.5938" rx="2.5" ry="2.5" style="stroke:#181818;stroke-width:0.5;" width="133" x="834.5" y="78.2969"/><rect fill="#F1F1F1" height="10" style="stroke:#181818;stroke-width:0.5;" width="15" x="947.5" y="83.2969"/><rect fill="#F1F1F1" height="2" style="stroke:#181818;stroke-width:0.5;" width="4" x="945.5" y="85.2969"/><rect fill="#F1F1F1" height="2" style="stroke:#181818;stroke-width:0.5;" width="4" x="945.5" y="89.2969"/><text fill="#000000" font-family="sans-serif" font-size="14" lengthAdjust="spacing" textLength="93" x="849.5" y="111.292">PokemonApp</text><text fill="#000000" font-family="sans-serif" font-size="14" lengthAdjust="spacing" textLength="36" x="849.5" y="127.5889">(app)</text></g><!--MD5=[ac7361759178fe475076cb5eaf2ef115]
entity JuegoController--><g id="elem_JuegoController"><rect fill="#F1F1F1" height="62.5938" rx="2.5" ry="2.5" style="stroke:#181818;stroke-width:0.5;" width="146" x="749" y="218.2969"/><rect fill="#F1F1F1" height="10" style="stroke:#181818;stroke-width:0.5;" width="15" x="875" y="223.2969"/><rect fill="#F1F1F1" height="2" style="stroke:#181818;stroke-width:0.5;" width="4" x="873" y="225.2969"/><rect fill="#F1F1F1" height="2" style="stroke:#181818;stroke-width:0.5;" width="4" x="873" y="229.2969"/><text fill="#000000" font-family="sans-serif" font-size="14" lengthAdjust="spacing" textLength="106" x="764" y="251.292">JuegoController</text><text fill="#000000" font-family="sans-serif" font-size="14" lengthAdjust="spacing" textLength="75" x="764" y="267.5889">(controller)</text></g><!--MD5=[4ceb27881e79deab802dba39a578c57c]
entity BatallaController--><g id="elem_BatallaController"><rect fill="#F1F1F1" height="62.5938" rx="2.5" ry="2.5" style="stroke:#181818;stroke-width:0.5;" width="152" x="791" y="379.2969"/><rect fill="#F1F1F1" height="10" style="stroke:#181818;stroke-width:0.5;" width="15" x="923" y="384.2969"/><rect fill="#F1F1F1" height="2" style="stroke:#181818;stroke-width:0.5;" width="4" x="921" y="386.2969"/><rect fill="#F1F1F1" height="2" style="stroke:#181818;stroke-width:0.5;" width="4" x="921" y="390.2969"/><text fill="#000000" font-family="sans-serif" font-size="14" lengthAdjust="spacing" textLength="112" x="806" y="412.292">BatallaController</text><text fill="#000000" font-family="sans-serif" font-size="14" lengthAdjust="spacing" textLength="75" x="806" y="428.5889">(controller)</text></g><!--MD5=[cf82efaf48c72af90093040e75d4b5fc]
entity Batalla--><g id="elem_Batalla"><rect fill="#F1F1F1" height="62.5938" rx="2.5" ry="2.5" style="stroke:#181818;stroke-width:0.5;" width="99" x="691.5" y="709.7969"/><rect fill="#F1F1F1" height="10" style="stroke:#181818;stroke-width:0.5;" width="15" x="770.5" y="714.7969"/><rect fill="#F1F1F1" height="2" style="stroke:#181818;stroke-width:0.5;" width="4" x="768.5" y="716.7969"/><rect fill="#F1F1F1" height="2" style="stroke:#181818;stroke-width:0.5;" width="4" x="768.5" y="720.7969"/><text fill="#000000" font-family="sans-serif" font-size="14" lengthAdjust="spacing" textLength="45" x="706.5" y="742.792">Batalla</text><text fill="#000000" font-family="sans-serif" font-size="14" lengthAdjust="spacing" textLength="59" x="706.5" y="759.0889">(service)</text></g><!--MD5=[79f1009a3ecd78656d71b7ee6cc55b9a]
entity BatallaObserver--><g id="elem_BatallaObserver"><ellipse cx="860" cy="896.7969" fill="#F1F1F1" rx="8" ry="8" style="stroke:#181818;stroke-width:0.5;"/><text fill="#000000" font-family="sans-serif" font-size="14" lengthAdjust="spacing" textLength="108" x="806" y="926.792">BatallaObserver</text><text fill="#000000" font-family="sans-serif" font-size="14" lengthAdjust="spacing" textLength="59" x="806" y="943.0889">(service)</text></g><!--MD5=[1ba18c07dab9e29f794947ce23ae506a]
entity Modelo--><g id="elem_Modelo"><rect fill="#F1F1F1" height="62.5938" rx="2.5" ry="2.5" style="stroke:#181818;stroke-width:0.5;" width="226" x="537" y="865.2969"/><rect fill="#F1F1F1" height="10" style="stroke:#181818;stroke-width:0.5;" width="15" x="743" y="870.2969"/><rect fill="#F1F1F1" height="2" style="stroke:#181818;stroke-width:0.5;" width="4" x="741" y="872.2969"/><rect fill="#F1F1F1" height="2" style="stroke:#181818;stroke-width:0.5;" width="4" x="741" y="876.2969"/><text fill="#000000" font-family="sans-serif" font-size="14" lengthAdjust="spacing" textLength="116" x="552" y="898.292">Modelo de juego</text><text fill="#000000" font-family="sans-serif" font-size="14" lengthAdjust="spacing" textLength="186" x="552" y="914.5889">(model + model.pokemon)</text></g><!--MD5=[dd58141201c70b8e2e29018fe3c7b7f9]
entity Catalogos--><g id="elem_Catalogos"><rect fill="#F1F1F1" height="62.5938" rx="2.5" ry="2.5" style="stroke:#181818;stroke-width:0.5;" width="109" x="329.5" y="546.7969"/><rect fill="#F1F1F1" height="10" style="stroke:#181818;stroke-width:0.5;" width="15" x="418.5" y="551.7969"/><rect fill="#F1F1F1" height="2" style="stroke:#181818;stroke-width:0.5;" width="4" x="416.5" y="553.7969"/><rect fill="#F1F1F1" height="2" style="stroke:#181818;stroke-width:0.5;" width="4" x="416.5" y="557.7969"/><text fill="#000000" font-family="sans-serif" font-size="14" lengthAdjust="spacing" textLength="69" x="344.5" y="579.792">Catálogos</text><text fill="#000000" font-family="sans-serif" font-size="14" lengthAdjust="spacing" textLength="30" x="344.5" y="596.0889">(util)</text></g><!--MD5=[e12912be05fe08dab1d7912b89c95730]
entity Factories--><g id="elem_Factories"><rect fill="#F1F1F1" height="62.5938" rx="2.5" ry="2.5" style="stroke:#181818;stroke-width:0.5;" width="147" x="333.5" y="709.7969"/><rect fill="#F1F1F1" height="10" style="stroke:#181818;stroke-width:0.5;" width="15" x="460.5" y="714.7969"/><rect fill="#F1F1F1" height="2" style="stroke:#181818;stroke-width:0.5;" width="4" x="458.5" y="716.7969"/><rect fill="#F1F1F1" height="2" style="stroke:#181818;stroke-width:0.5;" width="4" x="458.5" y="720.7969"/><text fill="#000000" font-family="sans-serif" font-size="14" lengthAdjust="spacing" textLength="107" x="348.5" y="742.792">Factory Method</text><text fill="#000000" font-family="sans-serif" font-size="14" lengthAdjust="spacing" textLength="56" x="348.5" y="759.0889">(factory)</text></g><!--MD5=[10b64bf7f834d4fccfbb54831218b0ce]
entity GameRepository--><g id="elem_GameRepository"><rect fill="#F1F1F1" height="62.5938" rx="2.5" ry="2.5" style="stroke:#181818;stroke-width:0.5;" width="155" x="537.5" y="379.2969"/><rect fill="#F1F1F1" height="10" style="stroke:#181818;stroke-width:0.5;" width="15" x="672.5" y="384.2969"/><rect fill="#F1F1F1" height="2" style="stroke:#181818;stroke-width:0.5;" width="4" x="670.5" y="386.2969"/><rect fill="#F1F1F1" height="2" style="stroke:#181818;stroke-width:0.5;" width="4" x="670.5" y="390.2969"/><text fill="#000000" font-family="sans-serif" font-size="14" lengthAdjust="spacing" textLength="115" x="552.5" y="412.292">GameRepository</text><text fill="#000000" font-family="sans-serif" font-size="14" lengthAdjust="spacing" textLength="92" x="552.5" y="428.5889">(persistence)</text></g><!--MD5=[74bb5cd6ede85365ff839f576579be05]
entity SaveFile--><g id="elem_SaveFile"><rect fill="#F1F1F1" height="55.5938" rx="2.5" ry="2.5" style="stroke:#181818;stroke-width:0.5;" width="143" x="542.5" y="550.2969"/><polygon fill="#F1F1F1" points="668.5,555.2969,668.5,569.2969,680.5,569.2969,680.5,561.2969,674.5,555.2969,668.5,555.2969" style="stroke:#181818;stroke-width:0.5;"/><line style="stroke:#181818;stroke-width:0.5;" x1="674.5" x2="674.5" y1="555.2969" y2="561.2969"/><line style="stroke:#181818;stroke-width:0.5;" x1="680.5" x2="674.5" y1="561.2969" y2="561.2969"/><text fill="#000000" font-family="sans-serif" font-size="14" lengthAdjust="spacing" textLength="113" x="552.5" y="576.292">saves/partida.txt</text><text fill="#000000" font-family="sans-serif" font-size="14" lengthAdjust="spacing" textLength="85" x="552.5" y="592.5889">Archivo local</text></g><!--MD5=[128f0757cf0ea77f14e95a88885fd9f7]
entity Usuario--><g id="elem_Usuario"><ellipse cx="1321" cy="381.2969" fill="#F1F1F1" rx="8" ry="8" style="stroke:#181818;stroke-width:0.5;"/><path d="M1321,389.2969 L1321,416.2969 M1308,397.2969 L1334,397.2969 M1321,416.2969 L1308,431.2969 M1321,416.2969 L1334,431.2969 " fill="none" style="stroke:#181818;stroke-width:0.5;"/><text fill="#000000" font-family="sans-serif" font-size="14" lengthAdjust="spacing" textLength="52" x="1295" y="445.792">Usuario</text></g><!--MD5=[ecb69b8d3a04f48617085d9330de3a51]
link Usuario to ConsoleView--><g id="link_Usuario_ConsoleView"><path d="M1303.62,449.1669 C1294.74,465.1369 1282.69,482.9969 1268,495.7969 C1236.19,523.5069 1193.4,543.3969 1157.53,556.5969 " fill="none" id="Usuario-to-ConsoleView" style="stroke:#181818;stroke-width:1.0;"/><polygon fill="#181818" points="1152.74,558.3269,1162.5639,559.0272,1157.4419,556.6262,1159.8428,551.5041,1152.74,558.3269" style="stroke:#181818;stroke-width:1.0;"/><text fill="#000000" font-family="sans-serif" font-size="13" lengthAdjust="spacing" textLength="65" x="1283" y="491.8638">interactúa</text></g><!--MD5=[b703ea354406d836a6f544fc3e8466e6]
link PokemonApp to ConsoleView--><g id="link_PokemonApp_ConsoleView"><path d="M967.76,137.5769 C1041.98,171.4269 1157.97,237.4669 1208,336.2969 C1234.1,387.8469 1231.15,413.3569 1208,466.2969 C1194.19,497.8869 1166.46,524.4969 1141.13,543.7369 " fill="none" id="PokemonApp-to-ConsoleView" style="stroke:#181818;stroke-width:1.0;"/><polygon fill="#181818" points="1137.09,546.7569,1146.69,544.5569,1141.09,543.7569,1141.89,538.1569,1137.09,546.7569" style="stroke:#181818;stroke-width:1.0;"/><text fill="#000000" font-family="sans-serif" font-size="13" lengthAdjust="spacing" textLength="28" x="1203" y="324.3638">crea</text></g><!--MD5=[c608a53235bc1d8f85732af217c58776]
link PokemonApp to JuegoController--><g id="link_PokemonApp_JuegoController"><path d="M883.47,141.4269 C871.19,162.8669 854.77,191.5469 841.99,213.8769 " fill="none" id="PokemonApp-to-JuegoController" style="stroke:#181818;stroke-width:1.0;"/><polygon fill="#181818" points="839.48,218.2569,847.4223,212.4329,841.9638,213.9174,840.4792,208.4588,839.48,218.2569" style="stroke:#181818;stroke-width:1.0;"/><text fill="#000000" font-family="sans-serif" font-size="13" lengthAdjust="spacing" textLength="28" x="867" y="184.3638">crea</text></g><!--MD5=[515a5c3f77b6c5e4f4a5cd282c52773a]
link PokemonApp to BatallaController--><g id="link_PokemonApp_BatallaController"><path d="M916.32,141.6569 C935.5,184.7069 963.08,264.6569 939,328.2969 C932.34,345.8869 919.96,362.1369 907.32,375.4169 " fill="none" id="PokemonApp-to-BatallaController" style="stroke:#181818;stroke-width:1.0;"/><polygon fill="#181818" points="903.75,379.0769,912.8915,375.4117,907.2352,375.4917,907.1552,369.8354,903.75,379.0769" style="stroke:#181818;stroke-width:1.0;"/><text fill="#000000" font-family="sans-serif" font-size="13" lengthAdjust="spacing" textLength="28" x="949" y="254.3638">crea</text></g><!--MD5=[f753662590ee70da424cf42598f1d043]
link PokemonApp to GameRepository--><g id="link_PokemonApp_GameRepository"><path d="M834.37,133.9769 C791.93,151.5669 738.31,179.3969 702,218.2969 C659.86,263.4469 635.43,332.5169 623.7,374.2069 " fill="none" id="PokemonApp-to-GameRepository" style="stroke:#181818;stroke-width:1.0;"/><polygon fill="#181818" points="622.33,379.1469,628.601,371.5525,623.6734,374.3307,620.8952,369.4031,622.33,379.1469" style="stroke:#181818;stroke-width:1.0;"/><text fill="#000000" font-family="sans-serif" font-size="13" lengthAdjust="spacing" textLength="28" x="703" y="254.3638">crea</text></g><!--MD5=[d41711249372a37124d82f25f1751739]
link JuegoController to ConsoleView--><g id="link_JuegoController_ConsoleView"><path d="M891.73,281.4569 C907.96,290.0269 924.67,300.1069 939,311.2969 C1016.34,371.7169 1059.81,484.1369 1077.9,541.5569 " fill="none" id="JuegoController-to-ConsoleView" style="stroke:#181818;stroke-width:1.0;"/><polygon fill="#181818" points="1079.47,546.5969,1080.6217,536.8156,1077.9876,541.8217,1072.9815,539.1875,1079.47,546.5969" style="stroke:#181818;stroke-width:1.0;"/><text fill="#000000" font-family="sans-serif" font-size="13" lengthAdjust="spacing" textLength="150" x="1049" y="415.3638">solicita datos / muestra</text></g><!--MD5=[91c016526aaac5d0084de93bd0a15c40]
link JuegoController to BatallaController--><g id="link_JuegoController_BatallaController"><path d="M830.68,281.4569 C838.18,307.9569 849.03,346.2869 856.91,374.1569 " fill="none" id="JuegoController-to-BatallaController" style="stroke:#181818;stroke-width:1.0;"/><polygon fill="#181818" points="858.35,379.2369,859.758,369.4892,856.9934,374.4244,852.0581,371.6598,858.35,379.2369" style="stroke:#181818;stroke-width:1.0;"/><text fill="#000000" font-family="sans-serif" font-size="13" lengthAdjust="spacing" textLength="86" x="844" y="324.3638">inicia batallas</text></g><!--MD5=[9ed0093814195341e4bf7bb9ae2d118e]
link JuegoController to GameRepository--><g id="link_JuegoController_GameRepository"><path d="M770.14,281.3169 C755.54,290.4869 739.86,300.8869 726,311.2969 C699.62,331.1069 671.87,355.7369 650.71,375.4169 " fill="none" id="JuegoController-to-GameRepository" style="stroke:#181818;stroke-width:1.0;"/><polygon fill="#181818" points="646.83,379.0269,656.1383,375.8089,650.4848,375.6148,650.679,369.9613,646.83,379.0269" style="stroke:#181818;stroke-width:1.0;"/><text fill="#000000" font-family="sans-serif" font-size="13" lengthAdjust="spacing" textLength="103" x="727" y="324.3638">guardar / cargar</text></g><!--MD5=[c052b007d615db27c8bff38dd4c22971]
link JuegoController to Catalogos--><g id="link_JuegoController_Catalogos"><path d="M748.93,278.8469 C745.93,279.7169 742.94,280.5469 740,281.2969 C658.41,302.2069 420.07,272.5669 365,336.2969 C315.42,393.6769 345.29,490.0969 367.16,541.8769 " fill="none" id="JuegoController-to-Catalogos" style="stroke:#181818;stroke-width:1.0;"/><polygon fill="#181818" points="369.24,546.7469,369.3713,536.8989,367.2704,542.1511,362.0181,540.0502,369.24,546.7469" style="stroke:#181818;stroke-width:1.0;"/><text fill="#000000" font-family="sans-serif" font-size="13" lengthAdjust="spacing" textLength="154" x="366" y="415.3638">starters, rivales, objetos</text></g><!--MD5=[5bcd935bfad6e4c7cbd13aa03e0ad500]
link JuegoController to Modelo--><g id="link_JuegoController_Modelo"><path d="M748.98,279.0869 C745.97,279.8969 742.97,280.6369 740,281.2969 C578.33,317.1369 6,244.2069 6,409.7969 C6,409.7969 6,409.7969 6,742.2969 C6,849.1269 345.54,881.7469 531.53,891.5969 " fill="none" id="JuegoController-to-Modelo" style="stroke:#181818;stroke-width:1.0;"/><polygon fill="#181818" points="536.72,891.8669,527.9508,887.3835,531.7274,891.5951,527.5159,895.3717,536.72,891.8669" style="stroke:#181818;stroke-width:1.0;"/><text fill="#000000" font-family="sans-serif" font-size="13" lengthAdjust="spacing" textLength="130" x="7" y="582.8638">gestiona entrenador</text></g><!--MD5=[3ff332a0d6eb210aade2be4ca8944fa4]
link BatallaController to ConsoleView--><g id="link_BatallaController_ConsoleView"><path d="M881.74,442.3069 C891.32,459.6969 905.15,480.9069 922,495.7969 C949.97,520.5169 986.78,539.5969 1018.63,553.0569 " fill="none" id="BatallaController-to-ConsoleView" style="stroke:#181818;stroke-width:1.0;"/><polygon fill="#181818" points="1023.29,555.0069,1016.5098,547.8635,1018.6717,553.0909,1013.4442,555.2528,1023.29,555.0069" style="stroke:#181818;stroke-width:1.0;"/><text fill="#000000" font-family="sans-serif" font-size="13" lengthAdjust="spacing" textLength="111" x="923" y="491.8638">menús de batalla</text></g><!--MD5=[f904d5a363541ed0af9dc2a0de254df8]
link BatallaController to Batalla--><g id="link_BatallaController_Batalla"><path d="M833.09,442.3669 C816.72,458.9669 798.23,480.7769 787,503.7969 C754.79,569.8069 745.13,656.5369 742.23,704.5069 " fill="none" id="BatallaController-to-Batalla" style="stroke:#181818;stroke-width:1.0;"/><polygon fill="#181818" points="741.94,709.5869,746.4484,700.8305,742.2261,704.5951,738.4615,700.3728,741.94,709.5869" style="stroke:#181818;stroke-width:1.0;"/><text fill="#000000" font-family="sans-serif" font-size="13" lengthAdjust="spacing" textLength="52" x="788" y="582.8638">controla</text></g><!--MD5=[9a5baf6fde2faa24b66954f6653557ae]
link BatallaController to Modelo--><g id="link_BatallaController_Modelo"><path d="M866.26,442.6169 C863.92,535.3769 856.14,806.5469 845,821.7969 C841.5,826.5869 790.5,845.8569 741.55,863.5269 " fill="none" id="BatallaController-to-Modelo" style="stroke:#181818;stroke-width:1.0;"/><polygon fill="#181818" points="736.82,865.2369,746.642,865.9636,741.5264,863.5489,743.9412,858.4333,736.82,865.2369" style="stroke:#181818;stroke-width:1.0;"/><text fill="#000000" font-family="sans-serif" font-size="13" lengthAdjust="spacing" textLength="196" x="860" y="654.8638">equipo, objetos y movimientos</text></g><!--MD5=[e90373b84beba76984aab759c7f8bfb3]
link ConsoleView to BatallaObserver--><g id="link_ConsoleView_BatallaObserver"><path d="M1082.85,609.9469 C1079.47,625.2369 1074.13,643.6569 1066,658.7969 C1017.15,749.7769 927.81,835.8769 884.64,874.5069 " fill="none" id="ConsoleView-to-BatallaObserver" style="stroke:#181818;stroke-width:1.0;stroke-dasharray:7.0,7.0;"/><polygon fill="none" points="889.09,879.9169,869.44,887.8469,879.85,869.3969,889.09,879.9169" style="stroke:#181818;stroke-width:1.0;"/><text fill="#000000" font-family="sans-serif" font-size="13" lengthAdjust="spacing" textLength="77" x="1062" y="745.8638">implementa</text></g><!--MD5=[3316f608cc424be1f3815790de0b392f]
link Batalla to BatallaObserver--><g id="link_Batalla_BatallaObserver"><path d="M764.8,772.9869 C791.1,806.9269 832.19,859.9169 850.56,883.6269 " fill="none" id="Batalla-to-BatallaObserver" style="stroke:#181818;stroke-width:1.0;"/><polygon fill="#181818" points="853.72,887.6969,851.3831,878.1293,850.6632,883.7401,845.0523,883.0202,853.72,887.6969" style="stroke:#181818;stroke-width:1.0;"/><text fill="#000000" font-family="sans-serif" font-size="13" lengthAdjust="spacing" textLength="101" x="801" y="817.8638">notifica eventos</text></g><!--MD5=[feaa50e60565ac4be2f1ab9f0b2f72e7]
link Batalla to Modelo--><g id="link_Batalla_Modelo"><path d="M691.36,749.1369 C657.67,756.6469 615.5,772.2969 594,804.7969 C581.82,823.2069 593.07,844.1669 608.59,861.3269 " fill="none" id="Batalla-to-Modelo" style="stroke:#181818;stroke-width:1.0;"/><polygon fill="#181818" points="612.18,865.1469,608.9439,855.8449,608.7608,861.4987,603.1069,861.3156,612.18,865.1469" style="stroke:#181818;stroke-width:1.0;"/><text fill="#000000" font-family="sans-serif" font-size="13" lengthAdjust="spacing" textLength="102" x="595" y="817.8638">modifica estado</text></g><!--MD5=[76b96e8ae2ba97ffd16c9c1ff2155754]
link Catalogos to Factories--><g id="link_Catalogos_Factories"><path d="M388.38,609.9569 C392.23,636.9269 397.84,676.1969 401.9,704.5869 " fill="none" id="Catalogos-to-Factories" style="stroke:#181818;stroke-width:1.0;"/><polygon fill="#181818" points="402.64,709.7469,405.3385,700.2749,401.9389,704.7963,397.4175,701.3967,402.64,709.7469" style="stroke:#181818;stroke-width:1.0;"/><text fill="#000000" font-family="sans-serif" font-size="13" lengthAdjust="spacing" textLength="115" x="395" y="654.8638">crea movimientos</text></g><!--MD5=[4eacbf870a47aa9b6a8e9ec4514fe6d9]
link Catalogos to Modelo--><g id="link_Catalogos_Modelo"><path d="M329.42,603.4169 C307.82,612.9269 282.76,623.9169 260,633.7969 C257.87,634.7269 184.28,664.8569 183,666.7969 C151.19,715.0369 146.63,751.9069 183,796.7969 C226.1,849.9869 408.07,875.7569 531.71,887.3469 " fill="none" id="Catalogos-to-Modelo" style="stroke:#181818;stroke-width:1.0;"/><polygon fill="#181818" points="536.82,887.8169,528.2241,883.0096,531.841,887.359,527.4915,890.976,536.82,887.8169" style="stroke:#181818;stroke-width:1.0;"/><text fill="#000000" font-family="sans-serif" font-size="13" lengthAdjust="spacing" textLength="131" x="184" y="745.8638">construye instancias</text></g><!--MD5=[fe6edd0218afed00776712779c20860c]
link Factories to Modelo--><g id="link_Factories_Modelo"><path d="M414.56,772.9669 C420.02,789.3969 428.96,808.8569 443,821.7969 C467.78,844.6269 500.08,860.5069 531.77,871.5269 " fill="none" id="Factories-to-Modelo" style="stroke:#181818;stroke-width:1.0;"/><polygon fill="#181818" points="536.85,873.2469,529.6069,866.5732,532.1138,871.6443,527.0427,874.1512,536.85,873.2469" style="stroke:#181818;stroke-width:1.0;"/><text fill="#000000" font-family="sans-serif" font-size="13" lengthAdjust="spacing" textLength="135" x="444" y="817.8638">devuelve Movimiento</text></g><!--MD5=[514ea16cdafeb25f727bdb0353eb4372]
link GameRepository to SaveFile--><g id="link_GameRepository_SaveFile"><path d="M614.81,442.5369 C614.64,471.7869 614.37,515.6169 614.19,545.2769 " fill="none" id="GameRepository-to-SaveFile" style="stroke:#181818;stroke-width:1.0;"/><polygon fill="#181818" points="614.16,550.2769,618.2114,541.2999,614.1886,545.277,610.2115,541.2542,614.16,550.2769" style="stroke:#181818;stroke-width:1.0;"/><text fill="#000000" font-family="sans-serif" font-size="13" lengthAdjust="spacing" textLength="77" x="615" y="491.8638">lee / escribe</text></g><!--MD5=[9478eb9407e4a774b46aebcd71550be0]
link GameRepository to Modelo--><g id="link_GameRepository_Modelo"><path d="M574.39,442.3469 C560.62,451.3669 544.72,460.3969 529,466.2969 C494.9,479.0969 483.91,472.7069 448,478.7969 C387.84,489.0069 368.66,478.7869 313,503.7969 C227.2,542.3469 233.19,598.5069 146,633.7969 C130.67,640.0069 83.05,629.4869 72,641.7969 C66.95,647.4169 70.08,651.4869 72,658.7969 C94.3,743.5569 102.37,787.4469 183,821.7969 C295.22,869.6069 434.5,886.8469 531.62,892.8969 " fill="none" id="GameRepository-to-Modelo" style="stroke:#181818;stroke-width:1.0;"/><polygon fill="#181818" points="536.79,893.2069,528.0457,888.675,531.799,892.9074,527.5666,896.6607,536.79,893.2069" style="stroke:#181818;stroke-width:1.0;"/><text fill="#000000" font-family="sans-serif" font-size="13" lengthAdjust="spacing" textLength="119" x="73" y="654.8638">serializa entidades</text></g><!--MD5=[f4ea69ee0e3a858dfc24628d23ab9e0d]
link GameRepository to Catalogos--><g id="link_GameRepository_Catalogos"><path d="M559.19,442.2969 C543.46,450.4769 526.22,459.0469 510,466.2969 C495.68,472.6969 490.05,470.0969 477,478.7969 C451.13,496.0469 427.18,521.7469 410.07,542.5669 " fill="none" id="GameRepository-to-Catalogos" style="stroke:#181818;stroke-width:1.0;"/><polygon fill="#181818" points="406.74,546.6569,415.5198,542.1942,409.893,542.7763,409.3109,537.1495,406.74,546.6569" style="stroke:#181818;stroke-width:1.0;"/><text fill="#000000" font-family="sans-serif" font-size="13" lengthAdjust="spacing" textLength="127" x="478" y="491.8638">reconstruye objetos</text></g><!--MD5=[c206fd7648f73297bd052177aef38cfd]
@startuml
skinparam componentStyle uml2
skinparam shadowing false
title Diagrama de componentes - PokemonApp

actor Usuario

package "Presentación" {
  component "ConsoleView\n(view)" as ConsoleView
}

package "Aplicación / Controladores" {
  component "PokemonApp\n(app)" as PokemonApp
  component "JuegoController\n(controller)" as JuegoController
  component "BatallaController\n(controller)" as BatallaController
}

package "Dominio" {
  component "Batalla\n(service)" as Batalla
  interface "BatallaObserver\n(service)" as BatallaObserver
  component "Modelo de juego\n(model + model.pokemon)" as Modelo
}

package "Creación / Catálogos" {
  component "Catálogos\n(util)" as Catalogos
  component "Factory Method\n(factory)" as Factories
}

package "Persistencia" {
  component "GameRepository\n(persistence)" as GameRepository
  artifact "saves/partida.txt\nArchivo local" as SaveFile
}

Usuario - -> ConsoleView : interactúa

PokemonApp - -> ConsoleView : crea
PokemonApp - -> JuegoController : crea
PokemonApp - -> BatallaController : crea
PokemonApp - -> GameRepository : crea

JuegoController - -> ConsoleView : solicita datos / muestra
JuegoController - -> BatallaController : inicia batallas
JuegoController - -> GameRepository : guardar / cargar
JuegoController - -> Catalogos : starters, rivales, objetos
JuegoController - -> Modelo : gestiona entrenador

BatallaController - -> ConsoleView : menús de batalla
BatallaController - -> Batalla : controla
BatallaController - -> Modelo : equipo, objetos y movimientos

ConsoleView ..|> BatallaObserver : implementa
Batalla - -> BatallaObserver : notifica eventos
Batalla - -> Modelo : modifica estado

Catalogos - -> Factories : crea movimientos
Catalogos - -> Modelo : construye instancias
Factories - -> Modelo : devuelve Movimiento

GameRepository - -> SaveFile : lee / escribe
GameRepository - -> Modelo : serializa entidades
GameRepository - -> Catalogos : reconstruye objetos
@enduml

PlantUML version 1.2022.7(Mon Aug 22 17:01:30 UTC 2022)
(GPL source distribution)
Java Runtime: OpenJDK Runtime Environment
JVM: OpenJDK 64-Bit Server VM
Default Encoding: UTF-8
Language: en
Country: null
--></g></svg>