<?xml version="1.0" encoding="UTF-8" standalone="no"?><svg xmlns="http://www.w3.org/2000/svg" xmlns:xlink="http://www.w3.org/1999/xlink" contentStyleType="text/css" height="1216px" preserveAspectRatio="none" style="width:2743px;height:1216px;background:#FFFFFF;" version="1.1" viewBox="0 0 2743 1216" width="2743px" zoomAndPan="magnify"><defs/><g><rect fill="none" height="26.2969" id="_title" style="stroke:none;stroke-width:1.0;" width="307" x="1211" y="5"/><text fill="#000000" font-family="sans-serif" font-size="14" font-weight="bold" lengthAdjust="spacing" textLength="297" x="1216" y="22.9951">Diagrama de paquetes - PokemonApp</text><!--MD5=[d5ac3844f66b12d9e08170e47495e096]
cluster app--><g id="cluster_app"><rect fill="none" height="134" rx="2.5" ry="2.5" style="stroke:#000000;stroke-width:1.5;" width="292" x="531" y="44.2969"/><text fill="#000000" font-family="sans-serif" font-size="14" font-weight="bold" lengthAdjust="spacing" textLength="29" x="662.5" y="59.292">app</text></g><!--MD5=[10ea673caf457862023e152271927b45]
cluster controller--><g id="cluster_controller"><rect fill="none" height="134" rx="2.5" ry="2.5" style="stroke:#000000;stroke-width:1.5;" width="384" x="531" y="243.2969"/><text fill="#000000" font-family="sans-serif" font-size="14" font-weight="bold" lengthAdjust="spacing" textLength="77" x="684.5" y="258.292">controller</text></g><!--MD5=[86cbce8df1eb9d604fbbb2fa357940f8]
cluster view--><g id="cluster_view"><rect fill="none" height="134" rx="2.5" ry="2.5" style="stroke:#000000;stroke-width:1.5;" width="189" x="264" y="442.2969"/><text fill="#000000" font-family="sans-serif" font-size="14" font-weight="bold" lengthAdjust="spacing" textLength="37" x="340" y="457.292">view</text></g><!--MD5=[7579d5565d2521d5936cec86ed3dadee]
cluster service--><g id="cluster_service"><rect fill="none" height="134" rx="2.5" ry="2.5" style="stroke:#000000;stroke-width:1.5;" width="320" x="7" y="641.2969"/><text fill="#000000" font-family="sans-serif" font-size="14" font-weight="bold" lengthAdjust="spacing" textLength="58" x="138" y="656.292">service</text></g><!--MD5=[5d4cd377749310b66bf14896f5cd8d9b]
cluster model--><g id="cluster_model"><rect fill="none" height="134" rx="2.5" ry="2.5" style="stroke:#000000;stroke-width:1.5;" width="280" x="2297" y="840.2969"/><text fill="#000000" font-family="sans-serif" font-size="14" font-weight="bold" lengthAdjust="spacing" textLength="48" x="2413" y="855.292">model</text></g><!--MD5=[a9b82e0819e4cacbdefe7ae00a7a70b3]
cluster model_pokemon--><g id="cluster_model_pokemon"><rect fill="none" height="370" rx="2.5" ry="2.5" style="stroke:#000000;stroke-width:1.5;" width="793" x="165" y="840.2969"/><text fill="#000000" font-family="sans-serif" font-size="14" font-weight="bold" lengthAdjust="spacing" textLength="126" x="498.5" y="855.292">model.pokemon</text></g><!--MD5=[22238981d4678d24a4b690f00fa36180]
cluster factory--><g id="cluster_factory"><rect fill="none" height="370" rx="2.5" ry="2.5" style="stroke:#000000;stroke-width:1.5;" width="786" x="1030" y="840.2969"/><text fill="#000000" font-family="sans-serif" font-size="14" font-weight="bold" lengthAdjust="spacing" textLength="56" x="1395" y="855.292">factory</text></g><!--MD5=[3e81cc6ee7da4fa8b6adc12b329096f6]
cluster util--><g id="cluster_util"><rect fill="none" height="333" rx="2.5" ry="2.5" style="stroke:#000000;stroke-width:1.5;" width="401" x="1856" y="641.2969"/><text fill="#000000" font-family="sans-serif" font-size="14" font-weight="bold" lengthAdjust="spacing" textLength="24" x="2044.5" y="656.292">util</text></g><!--MD5=[0334151241c2df87d13997940bbf650c]
cluster persistence--><g id="cluster_persistence"><rect fill="none" height="134" rx="2.5" ry="2.5" style="stroke:#000000;stroke-width:1.5;" width="215" x="2293" y="442.2969"/><text fill="#000000" font-family="sans-serif" font-size="14" font-weight="bold" lengthAdjust="spacing" textLength="94" x="2353.5" y="457.292">persistence</text></g><!--MD5=[84718776d214be480e4c259efcb737fc]
class Main--><g id="elem_Main"><rect codeLine="6" fill="#F1F1F1" height="48" id="Main" rx="2.5" ry="2.5" style="stroke:#181818;stroke-width:0.5;" width="64" x="735" y="106.2969"/><ellipse cx="750" cy="122.2969" fill="#ADD1B2" rx="11" ry="11" style="stroke:#181818;stroke-width:1.0;"/><path d="M752.9688,127.9375 Q752.3906,128.2344 751.75,128.375 Q751.1094,128.5313 750.4063,128.5313 Q747.9063,128.5313 746.5781,126.8906 Q745.2656,125.2344 745.2656,122.1094 Q745.2656,118.9844 746.5781,117.3281 Q747.9063,115.6719 750.4063,115.6719 Q751.1094,115.6719 751.75,115.8281 Q752.4063,115.9844 752.9688,116.2813 L752.9688,119 Q752.3438,118.4219 751.75,118.1563 Q751.1563,117.875 750.5313,117.875 Q749.1875,117.875 748.5,118.9531 Q747.8125,120.0156 747.8125,122.1094 Q747.8125,124.2031 748.5,125.2813 Q749.1875,126.3438 750.5313,126.3438 Q751.1563,126.3438 751.75,126.0781 Q752.3438,125.7969 752.9688,125.2188 L752.9688,127.9375 Z " fill="#000000"/><text fill="#000000" font-family="sans-serif" font-size="14" lengthAdjust="spacing" textLength="32" x="764" y="127.1436">Main</text><line style="stroke:#181818;stroke-width:0.5;" x1="736" x2="798" y1="138.2969" y2="138.2969"/><line style="stroke:#181818;stroke-width:0.5;" x1="736" x2="798" y1="146.2969" y2="146.2969"/></g><!--MD5=[c1dcec478f8a2ae90a8e35fe8598bfc2]
class PokemonApp--><g id="elem_PokemonApp"><rect codeLine="7" fill="#F1F1F1" height="48" id="PokemonApp" rx="2.5" ry="2.5" style="stroke:#181818;stroke-width:0.5;" width="125" x="574.5" y="106.2969"/><ellipse cx="589.5" cy="122.2969" fill="#ADD1B2" rx="11" ry="11" style="stroke:#181818;stroke-width:1.0;"/><path d="M592.4688,127.9375 Q591.8906,128.2344 591.25,128.375 Q590.6094,128.5313 589.9063,128.5313 Q587.4063,128.5313 586.0781,126.8906 Q584.7656,125.2344 584.7656,122.1094 Q584.7656,118.9844 586.0781,117.3281 Q587.4063,115.6719 589.9063,115.6719 Q590.6094,115.6719 591.25,115.8281 Q591.9063,115.9844 592.4688,116.2813 L592.4688,119 Q591.8438,118.4219 591.25,118.1563 Q590.6563,117.875 590.0313,117.875 Q588.6875,117.875 588,118.9531 Q587.3125,120.0156 587.3125,122.1094 Q587.3125,124.2031 588,125.2813 Q588.6875,126.3438 590.0313,126.3438 Q590.6563,126.3438 591.25,126.0781 Q591.8438,125.7969 592.4688,125.2188 L592.4688,127.9375 Z " fill="#000000"/><text fill="#000000" font-family="sans-serif" font-size="14" lengthAdjust="spacing" textLength="93" x="603.5" y="127.1436">PokemonApp</text><line style="stroke:#181818;stroke-width:0.5;" x1="575.5" x2="698.5" y1="138.2969" y2="138.2969"/><line style="stroke:#181818;stroke-width:0.5;" x1="575.5" x2="698.5" y1="146.2969" y2="146.2969"/></g><!--MD5=[cc2398ceca82c77533a9e7473addac57]
class JuegoController--><g id="elem_JuegoController"><rect codeLine="11" fill="#F1F1F1" height="48" id="JuegoController" rx="2.5" ry="2.5" style="stroke:#181818;stroke-width:0.5;" width="138" x="753" y="305.2969"/><ellipse cx="768" cy="321.2969" fill="#ADD1B2" rx="11" ry="11" style="stroke:#181818;stroke-width:1.0;"/><path d="M770.9688,326.9375 Q770.3906,327.2344 769.75,327.375 Q769.1094,327.5313 768.4063,327.5313 Q765.9063,327.5313 764.5781,325.8906 Q763.2656,324.2344 763.2656,321.1094 Q763.2656,317.9844 764.5781,316.3281 Q765.9063,314.6719 768.4063,314.6719 Q769.1094,314.6719 769.75,314.8281 Q770.4063,314.9844 770.9688,315.2813 L770.9688,318 Q770.3438,317.4219 769.75,317.1563 Q769.1563,316.875 768.5313,316.875 Q767.1875,316.875 766.5,317.9531 Q765.8125,319.0156 765.8125,321.1094 Q765.8125,323.2031 766.5,324.2813 Q767.1875,325.3438 768.5313,325.3438 Q769.1563,325.3438 769.75,325.0781 Q770.3438,324.7969 770.9688,324.2188 L770.9688,326.9375 Z " fill="#000000"/><text fill="#000000" font-family="sans-serif" font-size="14" lengthAdjust="spacing" textLength="106" x="782" y="326.1436">JuegoController</text><line style="stroke:#181818;stroke-width:0.5;" x1="754" x2="890" y1="337.2969" y2="337.2969"/><line style="stroke:#181818;stroke-width:0.5;" x1="754" x2="890" y1="345.2969" y2="345.2969"/></g><!--MD5=[0964f3926671513d31a6caaed73a7d3f]
class BatallaController--><g id="elem_BatallaController"><rect codeLine="12" fill="#F1F1F1" height="48" id="BatallaController" rx="2.5" ry="2.5" style="stroke:#181818;stroke-width:0.5;" width="144" x="574" y="305.2969"/><ellipse cx="589" cy="321.2969" fill="#ADD1B2" rx="11" ry="11" style="stroke:#181818;stroke-width:1.0;"/><path d="M591.9688,326.9375 Q591.3906,327.2344 590.75,327.375 Q590.1094,327.5313 589.4063,327.5313 Q586.9063,327.5313 585.5781,325.8906 Q584.2656,324.2344 584.2656,321.1094 Q584.2656,317.9844 585.5781,316.3281 Q586.9063,314.6719 589.4063,314.6719 Q590.1094,314.6719 590.75,314.8281 Q591.4063,314.9844 591.9688,315.2813 L591.9688,318 Q591.3438,317.4219 590.75,317.1563 Q590.1563,316.875 589.5313,316.875 Q588.1875,316.875 587.5,317.9531 Q586.8125,319.0156 586.8125,321.1094 Q586.8125,323.2031 587.5,324.2813 Q588.1875,325.3438 589.5313,325.3438 Q590.1563,325.3438 590.75,325.0781 Q591.3438,324.7969 591.9688,324.2188 L591.9688,326.9375 Z " fill="#000000"/><text fill="#000000" font-family="sans-serif" font-size="14" lengthAdjust="spacing" textLength="112" x="603" y="326.1436">BatallaController</text><line style="stroke:#181818;stroke-width:0.5;" x1="575" x2="717" y1="337.2969" y2="337.2969"/><line style="stroke:#181818;stroke-width:0.5;" x1="575" x2="717" y1="345.2969" y2="345.2969"/></g><!--MD5=[51d729737bd84a4c43136dd336c2eea1]
class ConsoleView--><g id="elem_ConsoleView"><rect codeLine="16" fill="#F1F1F1" height="48" id="ConsoleView" rx="2.5" ry="2.5" style="stroke:#181818;stroke-width:0.5;" width="121" x="307.5" y="504.2969"/><ellipse cx="322.5" cy="520.2969" fill="#ADD1B2" rx="11" ry="11" style="stroke:#181818;stroke-width:1.0;"/><path d="M325.4688,525.9375 Q324.8906,526.2344 324.25,526.375 Q323.6094,526.5313 322.9063,526.5313 Q320.4063,526.5313 319.0781,524.8906 Q317.7656,523.2344 317.7656,520.1094 Q317.7656,516.9844 319.0781,515.3281 Q320.4063,513.6719 322.9063,513.6719 Q323.6094,513.6719 324.25,513.8281 Q324.9063,513.9844 325.4688,514.2813 L325.4688,517 Q324.8438,516.4219 324.25,516.1563 Q323.6563,515.875 323.0313,515.875 Q321.6875,515.875 321,516.9531 Q320.3125,518.0156 320.3125,520.1094 Q320.3125,522.2031 321,523.2813 Q321.6875,524.3438 323.0313,524.3438 Q323.6563,524.3438 324.25,524.0781 Q324.8438,523.7969 325.4688,523.2188 L325.4688,525.9375 Z " fill="#000000"/><text fill="#000000" font-family="sans-serif" font-size="14" lengthAdjust="spacing" textLength="89" x="336.5" y="525.1436">ConsoleView</text><line style="stroke:#181818;stroke-width:0.5;" x1="308.5" x2="427.5" y1="536.2969" y2="536.2969"/><line style="stroke:#181818;stroke-width:0.5;" x1="308.5" x2="427.5" y1="544.2969" y2="544.2969"/></g><!--MD5=[b073f7cef310c2a69878a3c345b948fe]
class Batalla--><g id="elem_Batalla"><rect codeLine="20" fill="#F1F1F1" height="48" id="Batalla" rx="2.5" ry="2.5" style="stroke:#181818;stroke-width:0.5;" width="77" x="225.5" y="703.2969"/><ellipse cx="240.5" cy="719.2969" fill="#ADD1B2" rx="11" ry="11" style="stroke:#181818;stroke-width:1.0;"/><path d="M243.4688,724.9375 Q242.8906,725.2344 242.25,725.375 Q241.6094,725.5313 240.9063,725.5313 Q238.4063,725.5313 237.0781,723.8906 Q235.7656,722.2344 235.7656,719.1094 Q235.7656,715.9844 237.0781,714.3281 Q238.4063,712.6719 240.9063,712.6719 Q241.6094,712.6719 242.25,712.8281 Q242.9063,712.9844 243.4688,713.2813 L243.4688,716 Q242.8438,715.4219 242.25,715.1563 Q241.6563,714.875 241.0313,714.875 Q239.6875,714.875 239,715.9531 Q238.3125,717.0156 238.3125,719.1094 Q238.3125,721.2031 239,722.2813 Q239.6875,723.3438 241.0313,723.3438 Q241.6563,723.3438 242.25,723.0781 Q242.8438,722.7969 243.4688,722.2188 L243.4688,724.9375 Z " fill="#000000"/><text fill="#000000" font-family="sans-serif" font-size="14" lengthAdjust="spacing" textLength="45" x="254.5" y="724.1436">Batalla</text><line style="stroke:#181818;stroke-width:0.5;" x1="226.5" x2="301.5" y1="735.2969" y2="735.2969"/><line style="stroke:#181818;stroke-width:0.5;" x1="226.5" x2="301.5" y1="743.2969" y2="743.2969"/></g><!--MD5=[e3628e3e9b012b4d4dc6fdfdaa4348e6]
class BatallaObserver--><g id="elem_BatallaObserver"><rect codeLine="21" fill="#F1F1F1" height="48" id="BatallaObserver" rx="2.5" ry="2.5" style="stroke:#181818;stroke-width:0.5;" width="140" x="50" y="703.2969"/><ellipse cx="65" cy="719.2969" fill="#B4A7E5" rx="11" ry="11" style="stroke:#181818;stroke-width:1.0;"/><path d="M60.9219,715.0625 L60.9219,712.9063 L68.3125,712.9063 L68.3125,715.0625 L65.8438,715.0625 L65.8438,723.1406 L68.3125,723.1406 L68.3125,725.2969 L60.9219,725.2969 L60.9219,723.1406 L63.3906,723.1406 L63.3906,715.0625 L60.9219,715.0625 Z " fill="#000000"/><text fill="#000000" font-family="sans-serif" font-size="14" font-style="italic" lengthAdjust="spacing" textLength="108" x="79" y="724.1436">BatallaObserver</text><line style="stroke:#181818;stroke-width:0.5;" x1="51" x2="189" y1="735.2969" y2="735.2969"/><line style="stroke:#181818;stroke-width:0.5;" x1="51" x2="189" y1="743.2969" y2="743.2969"/></g><!--MD5=[7b0cc48cb7351fde3d1bdba59d66fae8]
class Inventario--><g id="elem_Inventario"><rect codeLine="25" fill="#F1F1F1" height="48" id="Inventario" rx="2.5" ry="2.5" style="stroke:#181818;stroke-width:0.5;" width="99" x="2453.5" y="902.2969"/><ellipse cx="2468.5" cy="918.2969" fill="#ADD1B2" rx="11" ry="11" style="stroke:#181818;stroke-width:1.0;"/><path d="M2471.4688,923.9375 Q2470.8906,924.2344 2470.25,924.375 Q2469.6094,924.5313 2468.9063,924.5313 Q2466.4063,924.5313 2465.0781,922.8906 Q2463.7656,921.2344 2463.7656,918.1094 Q2463.7656,914.9844 2465.0781,913.3281 Q2466.4063,911.6719 2468.9063,911.6719 Q2469.6094,911.6719 2470.25,911.8281 Q2470.9063,911.9844 2471.4688,912.2813 L2471.4688,915 Q2470.8438,914.4219 2470.25,914.1563 Q2469.6563,913.875 2469.0313,913.875 Q2467.6875,913.875 2467,914.9531 Q2466.3125,916.0156 2466.3125,918.1094 Q2466.3125,920.2031 2467,921.2813 Q2467.6875,922.3438 2469.0313,922.3438 Q2469.6563,922.3438 2470.25,922.0781 Q2470.8438,921.7969 2471.4688,921.2188 L2471.4688,923.9375 Z " fill="#000000"/><text fill="#000000" font-family="sans-serif" font-size="14" lengthAdjust="spacing" textLength="67" x="2482.5" y="923.1436">Inventario</text><line style="stroke:#181818;stroke-width:0.5;" x1="2454.5" x2="2551.5" y1="934.2969" y2="934.2969"/><line style="stroke:#181818;stroke-width:0.5;" x1="2454.5" x2="2551.5" y1="942.2969" y2="942.2969"/></g><!--MD5=[3051a6a8f877a755a60c7cfd1e6f410a]
class Objeto--><g id="elem_Objeto"><rect codeLine="26" fill="#F1F1F1" height="48" id="Objeto" rx="2.5" ry="2.5" style="stroke:#181818;stroke-width:0.5;" width="78" x="2340" y="902.2969"/><ellipse cx="2355" cy="918.2969" fill="#ADD1B2" rx="11" ry="11" style="stroke:#181818;stroke-width:1.0;"/><path d="M2357.9688,923.9375 Q2357.3906,924.2344 2356.75,924.375 Q2356.1094,924.5313 2355.4063,924.5313 Q2352.9063,924.5313 2351.5781,922.8906 Q2350.2656,921.2344 2350.2656,918.1094 Q2350.2656,914.9844 2351.5781,913.3281 Q2352.9063,911.6719 2355.4063,911.6719 Q2356.1094,911.6719 2356.75,911.8281 Q2357.4063,911.9844 2357.9688,912.2813 L2357.9688,915 Q2357.3438,914.4219 2356.75,914.1563 Q2356.1563,913.875 2355.5313,913.875 Q2354.1875,913.875 2353.5,914.9531 Q2352.8125,916.0156 2352.8125,918.1094 Q2352.8125,920.2031 2353.5,921.2813 Q2354.1875,922.3438 2355.5313,922.3438 Q2356.1563,922.3438 2356.75,922.0781 Q2357.3438,921.7969 2357.9688,921.2188 L2357.9688,923.9375 Z " fill="#000000"/><text fill="#000000" font-family="sans-serif" font-size="14" lengthAdjust="spacing" textLength="46" x="2369" y="923.1436">Objeto</text><line style="stroke:#181818;stroke-width:0.5;" x1="2341" x2="2417" y1="934.2969" y2="934.2969"/><line style="stroke:#181818;stroke-width:0.5;" x1="2341" x2="2417" y1="942.2969" y2="942.2969"/></g><!--MD5=[e16e986b132bac4fb92536d5c0fe7a49]
class Entrenador--><g id="elem_Entrenador"><rect codeLine="30" fill="#F1F1F1" height="48" id="Entrenador" rx="2.5" ry="2.5" style="stroke:#181818;stroke-width:0.5;" width="109" x="230.5" y="902.2969"/><ellipse cx="245.5" cy="918.2969" fill="#ADD1B2" rx="11" ry="11" style="stroke:#181818;stroke-width:1.0;"/><path d="M248.4688,923.9375 Q247.8906,924.2344 247.25,924.375 Q246.6094,924.5313 245.9063,924.5313 Q243.4063,924.5313 242.0781,922.8906 Q240.7656,921.2344 240.7656,918.1094 Q240.7656,914.9844 242.0781,913.3281 Q243.4063,911.6719 245.9063,911.6719 Q246.6094,911.6719 247.25,911.8281 Q247.9063,911.9844 248.4688,912.2813 L248.4688,915 Q247.8438,914.4219 247.25,914.1563 Q246.6563,913.875 246.0313,913.875 Q244.6875,913.875 244,914.9531 Q243.3125,916.0156 243.3125,918.1094 Q243.3125,920.2031 244,921.2813 Q244.6875,922.3438 246.0313,922.3438 Q246.6563,922.3438 247.25,922.0781 Q247.8438,921.7969 248.4688,921.2188 L248.4688,923.9375 Z " fill="#000000"/><text fill="#000000" font-family="sans-serif" font-size="14" lengthAdjust="spacing" textLength="77" x="259.5" y="923.1436">Entrenador</text><line style="stroke:#181818;stroke-width:0.5;" x1="231.5" x2="338.5" y1="934.2969" y2="934.2969"/><line style="stroke:#181818;stroke-width:0.5;" x1="231.5" x2="338.5" y1="942.2969" y2="942.2969"/></g><!--MD5=[cbce687a05a9cd67b0897468438d0ab1]
class Pokemon--><g id="elem_Pokemon"><rect codeLine="31" fill="#F1F1F1" height="48" id="Pokemon" rx="2.5" ry="2.5" style="stroke:#181818;stroke-width:0.5;" width="98" x="450" y="902.2969"/><ellipse cx="465" cy="918.2969" fill="#ADD1B2" rx="11" ry="11" style="stroke:#181818;stroke-width:1.0;"/><path d="M467.9688,923.9375 Q467.3906,924.2344 466.75,924.375 Q466.1094,924.5313 465.4063,924.5313 Q462.9063,924.5313 461.5781,922.8906 Q460.2656,921.2344 460.2656,918.1094 Q460.2656,914.9844 461.5781,913.3281 Q462.9063,911.6719 465.4063,911.6719 Q466.1094,911.6719 466.75,911.8281 Q467.4063,911.9844 467.9688,912.2813 L467.9688,915 Q467.3438,914.4219 466.75,914.1563 Q466.1563,913.875 465.5313,913.875 Q464.1875,913.875 463.5,914.9531 Q462.8125,916.0156 462.8125,918.1094 Q462.8125,920.2031 463.5,921.2813 Q464.1875,922.3438 465.5313,922.3438 Q466.1563,922.3438 466.75,922.0781 Q467.3438,921.7969 467.9688,921.2188 L467.9688,923.9375 Z " fill="#000000"/><text fill="#000000" font-family="sans-serif" font-size="14" lengthAdjust="spacing" textLength="66" x="479" y="923.1436">Pokemon</text><line style="stroke:#181818;stroke-width:0.5;" x1="451" x2="547" y1="934.2969" y2="934.2969"/><line style="stroke:#181818;stroke-width:0.5;" x1="451" x2="547" y1="942.2969" y2="942.2969"/></g><!--MD5=[521bd056b5045de277c8484a5a36b6a0]
class Movimiento--><g id="elem_Movimiento"><rect codeLine="32" fill="#F1F1F1" height="48" id="Movimiento" rx="2.5" ry="2.5" style="stroke:#181818;stroke-width:0.5;" width="111" x="620.5" y="902.2969"/><ellipse cx="635.5" cy="918.2969" fill="#ADD1B2" rx="11" ry="11" style="stroke:#181818;stroke-width:1.0;"/><path d="M638.4688,923.9375 Q637.8906,924.2344 637.25,924.375 Q636.6094,924.5313 635.9063,924.5313 Q633.4063,924.5313 632.0781,922.8906 Q630.7656,921.2344 630.7656,918.1094 Q630.7656,914.9844 632.0781,913.3281 Q633.4063,911.6719 635.9063,911.6719 Q636.6094,911.6719 637.25,911.8281 Q637.9063,911.9844 638.4688,912.2813 L638.4688,915 Q637.8438,914.4219 637.25,914.1563 Q636.6563,913.875 636.0313,913.875 Q634.6875,913.875 634,914.9531 Q633.3125,916.0156 633.3125,918.1094 Q633.3125,920.2031 634,921.2813 Q634.6875,922.3438 636.0313,922.3438 Q636.6563,922.3438 637.25,922.0781 Q637.8438,921.7969 638.4688,921.2188 L638.4688,923.9375 Z " fill="#000000"/><text fill="#000000" font-family="sans-serif" font-size="14" lengthAdjust="spacing" textLength="79" x="649.5" y="923.1436">Movimiento</text><line style="stroke:#181818;stroke-width:0.5;" x1="621.5" x2="730.5" y1="934.2969" y2="934.2969"/><line style="stroke:#181818;stroke-width:0.5;" x1="621.5" x2="730.5" y1="942.2969" y2="942.2969"/></g><!--MD5=[d9641852d0406c90d06454101b13c772]
class MovimientoAgua--><g id="elem_MovimientoAgua"><rect codeLine="33" fill="#F1F1F1" height="48" id="MovimientoAgua" rx="2.5" ry="2.5" style="stroke:#181818;stroke-width:0.5;" width="146" x="786" y="902.2969"/><ellipse cx="801" cy="918.2969" fill="#ADD1B2" rx="11" ry="11" style="stroke:#181818;stroke-width:1.0;"/><path d="M803.9688,923.9375 Q803.3906,924.2344 802.75,924.375 Q802.1094,924.5313 801.4063,924.5313 Q798.9063,924.5313 797.5781,922.8906 Q796.2656,921.2344 796.2656,918.1094 Q796.2656,914.9844 797.5781,913.3281 Q798.9063,911.6719 801.4063,911.6719 Q802.1094,911.6719 802.75,911.8281 Q803.4063,911.9844 803.9688,912.2813 L803.9688,915 Q803.3438,914.4219 802.75,914.1563 Q802.1563,913.875 801.5313,913.875 Q800.1875,913.875 799.5,914.9531 Q798.8125,916.0156 798.8125,918.1094 Q798.8125,920.2031 799.5,921.2813 Q800.1875,922.3438 801.5313,922.3438 Q802.1563,922.3438 802.75,922.0781 Q803.3438,921.7969 803.9688,921.2188 L803.9688,923.9375 Z " fill="#000000"/><text fill="#000000" font-family="sans-serif" font-size="14" lengthAdjust="spacing" textLength="114" x="815" y="923.1436">MovimientoAgua</text><line style="stroke:#181818;stroke-width:0.5;" x1="787" x2="931" y1="934.2969" y2="934.2969"/><line style="stroke:#181818;stroke-width:0.5;" x1="787" x2="931" y1="942.2969" y2="942.2969"/></g><!--MD5=[5d3215ba35837afa0c9eb2c4f45755d3]
class MovimientoAire--><g id="elem_MovimientoAire"><rect codeLine="34" fill="#F1F1F1" height="48" id="MovimientoAire" rx="2.5" ry="2.5" style="stroke:#181818;stroke-width:0.5;" width="137" x="197.5" y="1029.2969"/><ellipse cx="212.5" cy="1045.2969" fill="#ADD1B2" rx="11" ry="11" style="stroke:#181818;stroke-width:1.0;"/><path d="M215.4688,1050.9375 Q214.8906,1051.2344 214.25,1051.375 Q213.6094,1051.5313 212.9063,1051.5313 Q210.4063,1051.5313 209.0781,1049.8906 Q207.7656,1048.2344 207.7656,1045.1094 Q207.7656,1041.9844 209.0781,1040.3281 Q210.4063,1038.6719 212.9063,1038.6719 Q213.6094,1038.6719 214.25,1038.8281 Q214.9063,1038.9844 215.4688,1039.2813 L215.4688,1042 Q214.8438,1041.4219 214.25,1041.1563 Q213.6563,1040.875 213.0313,1040.875 Q211.6875,1040.875 211,1041.9531 Q210.3125,1043.0156 210.3125,1045.1094 Q210.3125,1047.2031 211,1048.2813 Q211.6875,1049.3438 213.0313,1049.3438 Q213.6563,1049.3438 214.25,1049.0781 Q214.8438,1048.7969 215.4688,1048.2188 L215.4688,1050.9375 Z " fill="#000000"/><text fill="#000000" font-family="sans-serif" font-size="14" lengthAdjust="spacing" textLength="105" x="226.5" y="1050.1436">MovimientoAire</text><line style="stroke:#181818;stroke-width:0.5;" x1="198.5" x2="333.5" y1="1061.2969" y2="1061.2969"/><line style="stroke:#181818;stroke-width:0.5;" x1="198.5" x2="333.5" y1="1069.2969" y2="1069.2969"/></g><!--MD5=[81889da37461acc62b5e499d9f5ff9a3]
class MovimientoElectrico--><g id="elem_MovimientoElectrico"><rect codeLine="35" fill="#F1F1F1" height="48" id="MovimientoElectrico" rx="2.5" ry="2.5" style="stroke:#181818;stroke-width:0.5;" width="170" x="370" y="1029.2969"/><ellipse cx="385" cy="1045.2969" fill="#ADD1B2" rx="11" ry="11" style="stroke:#181818;stroke-width:1.0;"/><path d="M387.9688,1050.9375 Q387.3906,1051.2344 386.75,1051.375 Q386.1094,1051.5313 385.4063,1051.5313 Q382.9063,1051.5313 381.5781,1049.8906 Q380.2656,1048.2344 380.2656,1045.1094 Q380.2656,1041.9844 381.5781,1040.3281 Q382.9063,1038.6719 385.4063,1038.6719 Q386.1094,1038.6719 386.75,1038.8281 Q387.4063,1038.9844 387.9688,1039.2813 L387.9688,1042 Q387.3438,1041.4219 386.75,1041.1563 Q386.1563,1040.875 385.5313,1040.875 Q384.1875,1040.875 383.5,1041.9531 Q382.8125,1043.0156 382.8125,1045.1094 Q382.8125,1047.2031 383.5,1048.2813 Q384.1875,1049.3438 385.5313,1049.3438 Q386.1563,1049.3438 386.75,1049.0781 Q387.3438,1048.7969 387.9688,1048.2188 L387.9688,1050.9375 Z " fill="#000000"/><text fill="#000000" font-family="sans-serif" font-size="14" lengthAdjust="spacing" textLength="138" x="399" y="1050.1436">MovimientoElectrico</text><line style="stroke:#181818;stroke-width:0.5;" x1="371" x2="539" y1="1061.2969" y2="1061.2969"/><line style="stroke:#181818;stroke-width:0.5;" x1="371" x2="539" y1="1069.2969" y2="1069.2969"/></g><!--MD5=[59ef50d5cc7e6465211a8932989b1700]
class MovimientoFuego--><g id="elem_MovimientoFuego"><rect codeLine="36" fill="#F1F1F1" height="48" id="MovimientoFuego" rx="2.5" ry="2.5" style="stroke:#181818;stroke-width:0.5;" width="155" x="575.5" y="1029.2969"/><ellipse cx="590.5" cy="1045.2969" fill="#ADD1B2" rx="11" ry="11" style="stroke:#181818;stroke-width:1.0;"/><path d="M593.4688,1050.9375 Q592.8906,1051.2344 592.25,1051.375 Q591.6094,1051.5313 590.9063,1051.5313 Q588.4063,1051.5313 587.0781,1049.8906 Q585.7656,1048.2344 585.7656,1045.1094 Q585.7656,1041.9844 587.0781,1040.3281 Q588.4063,1038.6719 590.9063,1038.6719 Q591.6094,1038.6719 592.25,1038.8281 Q592.9063,1038.9844 593.4688,1039.2813 L593.4688,1042 Q592.8438,1041.4219 592.25,1041.1563 Q591.6563,1040.875 591.0313,1040.875 Q589.6875,1040.875 589,1041.9531 Q588.3125,1043.0156 588.3125,1045.1094 Q588.3125,1047.2031 589,1048.2813 Q589.6875,1049.3438 591.0313,1049.3438 Q591.6563,1049.3438 592.25,1049.0781 Q592.8438,1048.7969 593.4688,1048.2188 L593.4688,1050.9375 Z " fill="#000000"/><text fill="#000000" font-family="sans-serif" font-size="14" lengthAdjust="spacing" textLength="123" x="604.5" y="1050.1436">MovimientoFuego</text><line style="stroke:#181818;stroke-width:0.5;" x1="576.5" x2="729.5" y1="1061.2969" y2="1061.2969"/><line style="stroke:#181818;stroke-width:0.5;" x1="576.5" x2="729.5" y1="1069.2969" y2="1069.2969"/></g><!--MD5=[326804c7dccb963451a5760e2ab5fb98]
class MovimientoPsiquico--><g id="elem_MovimientoPsiquico"><rect codeLine="37" fill="#F1F1F1" height="48" id="MovimientoPsiquico" rx="2.5" ry="2.5" style="stroke:#181818;stroke-width:0.5;" width="169" x="765.5" y="1029.2969"/><ellipse cx="780.5" cy="1045.2969" fill="#ADD1B2" rx="11" ry="11" style="stroke:#181818;stroke-width:1.0;"/><path d="M783.4688,1050.9375 Q782.8906,1051.2344 782.25,1051.375 Q781.6094,1051.5313 780.9063,1051.5313 Q778.4063,1051.5313 777.0781,1049.8906 Q775.7656,1048.2344 775.7656,1045.1094 Q775.7656,1041.9844 777.0781,1040.3281 Q778.4063,1038.6719 780.9063,1038.6719 Q781.6094,1038.6719 782.25,1038.8281 Q782.9063,1038.9844 783.4688,1039.2813 L783.4688,1042 Q782.8438,1041.4219 782.25,1041.1563 Q781.6563,1040.875 781.0313,1040.875 Q779.6875,1040.875 779,1041.9531 Q778.3125,1043.0156 778.3125,1045.1094 Q778.3125,1047.2031 779,1048.2813 Q779.6875,1049.3438 781.0313,1049.3438 Q781.6563,1049.3438 782.25,1049.0781 Q782.8438,1048.7969 783.4688,1048.2188 L783.4688,1050.9375 Z " fill="#000000"/><text fill="#000000" font-family="sans-serif" font-size="14" lengthAdjust="spacing" textLength="137" x="794.5" y="1050.1436">MovimientoPsiquico</text><line style="stroke:#181818;stroke-width:0.5;" x1="766.5" x2="933.5" y1="1061.2969" y2="1061.2969"/><line style="stroke:#181818;stroke-width:0.5;" x1="766.5" x2="933.5" y1="1069.2969" y2="1069.2969"/></g><!--MD5=[d25fada7d1c70cd3b1a5e90b202e74b0]
class MovimientoTierra--><g id="elem_MovimientoTierra"><rect codeLine="38" fill="#F1F1F1" height="48" id="MovimientoTierra" rx="2.5" ry="2.5" style="stroke:#181818;stroke-width:0.5;" width="150" x="238" y="1138.2969"/><ellipse cx="253" cy="1154.2969" fill="#ADD1B2" rx="11" ry="11" style="stroke:#181818;stroke-width:1.0;"/><path d="M255.9688,1159.9375 Q255.3906,1160.2344 254.75,1160.375 Q254.1094,1160.5313 253.4063,1160.5313 Q250.9063,1160.5313 249.5781,1158.8906 Q248.2656,1157.2344 248.2656,1154.1094 Q248.2656,1150.9844 249.5781,1149.3281 Q250.9063,1147.6719 253.4063,1147.6719 Q254.1094,1147.6719 254.75,1147.8281 Q255.4063,1147.9844 255.9688,1148.2813 L255.9688,1151 Q255.3438,1150.4219 254.75,1150.1563 Q254.1563,1149.875 253.5313,1149.875 Q252.1875,1149.875 251.5,1150.9531 Q250.8125,1152.0156 250.8125,1154.1094 Q250.8125,1156.2031 251.5,1157.2813 Q252.1875,1158.3438 253.5313,1158.3438 Q254.1563,1158.3438 254.75,1158.0781 Q255.3438,1157.7969 255.9688,1157.2188 L255.9688,1159.9375 Z " fill="#000000"/><text fill="#000000" font-family="sans-serif" font-size="14" lengthAdjust="spacing" textLength="118" x="267" y="1159.1436">MovimientoTierra</text><line style="stroke:#181818;stroke-width:0.5;" x1="239" x2="387" y1="1170.2969" y2="1170.2969"/><line style="stroke:#181818;stroke-width:0.5;" x1="239" x2="387" y1="1178.2969" y2="1178.2969"/></g><!--MD5=[9ee2152a1d57835757669e520693fb32]
class TipoPokemon--><g id="elem_TipoPokemon"><rect codeLine="39" fill="#F1F1F1" height="48" id="TipoPokemon" rx="2.5" ry="2.5" style="stroke:#181818;stroke-width:0.5;" width="128" x="423" y="1138.2969"/><ellipse cx="438" cy="1154.2969" fill="#EB937F" rx="11" ry="11" style="stroke:#181818;stroke-width:1.0;"/><path d="M442.1094,1160.2969 L434.3906,1160.2969 L434.3906,1147.9063 L442.1094,1147.9063 L442.1094,1150.0625 L436.8438,1150.0625 L436.8438,1152.7344 L441.6094,1152.7344 L441.6094,1154.8906 L436.8438,1154.8906 L436.8438,1158.1406 L442.1094,1158.1406 L442.1094,1160.2969 Z " fill="#000000"/><text fill="#000000" font-family="sans-serif" font-size="14" lengthAdjust="spacing" textLength="96" x="452" y="1159.1436">TipoPokemon</text><line style="stroke:#181818;stroke-width:0.5;" x1="424" x2="550" y1="1170.2969" y2="1170.2969"/><line style="stroke:#181818;stroke-width:0.5;" x1="424" x2="550" y1="1178.2969" y2="1178.2969"/></g><!--MD5=[9cf298ade35693d97a81242ba21b0997]
class EstadoPokemon--><g id="elem_EstadoPokemon"><rect codeLine="40" fill="#F1F1F1" height="48" id="EstadoPokemon" rx="2.5" ry="2.5" style="stroke:#181818;stroke-width:0.5;" width="146" x="586" y="1138.2969"/><ellipse cx="601" cy="1154.2969" fill="#EB937F" rx="11" ry="11" style="stroke:#181818;stroke-width:1.0;"/><path d="M605.1094,1160.2969 L597.3906,1160.2969 L597.3906,1147.9063 L605.1094,1147.9063 L605.1094,1150.0625 L599.8438,1150.0625 L599.8438,1152.7344 L604.6094,1152.7344 L604.6094,1154.8906 L599.8438,1154.8906 L599.8438,1158.1406 L605.1094,1158.1406 L605.1094,1160.2969 Z " fill="#000000"/><text fill="#000000" font-family="sans-serif" font-size="14" lengthAdjust="spacing" textLength="114" x="615" y="1159.1436">EstadoPokemon</text><line style="stroke:#181818;stroke-width:0.5;" x1="587" x2="731" y1="1170.2969" y2="1170.2969"/><line style="stroke:#181818;stroke-width:0.5;" x1="587" x2="731" y1="1178.2969" y2="1178.2969"/></g><!--MD5=[cab01566e56cf0908cadafd8a0784f42]
class EstadoBatalla--><g id="elem_EstadoBatalla"><rect codeLine="41" fill="#F1F1F1" height="48" id="EstadoBatalla" rx="2.5" ry="2.5" style="stroke:#181818;stroke-width:0.5;" width="125" x="767.5" y="1138.2969"/><ellipse cx="782.5" cy="1154.2969" fill="#EB937F" rx="11" ry="11" style="stroke:#181818;stroke-width:1.0;"/><path d="M786.6094,1160.2969 L778.8906,1160.2969 L778.8906,1147.9063 L786.6094,1147.9063 L786.6094,1150.0625 L781.3438,1150.0625 L781.3438,1152.7344 L786.1094,1152.7344 L786.1094,1154.8906 L781.3438,1154.8906 L781.3438,1158.1406 L786.6094,1158.1406 L786.6094,1160.2969 Z " fill="#000000"/><text fill="#000000" font-family="sans-serif" font-size="14" lengthAdjust="spacing" textLength="93" x="796.5" y="1159.1436">EstadoBatalla</text><line style="stroke:#181818;stroke-width:0.5;" x1="768.5" x2="891.5" y1="1170.2969" y2="1170.2969"/><line style="stroke:#181818;stroke-width:0.5;" x1="768.5" x2="891.5" y1="1178.2969" y2="1178.2969"/></g><!--MD5=[c7cc9b1f9469a1bf75be0831b5b1540c]
class CreadorMovimiento--><g id="elem_CreadorMovimiento"><rect codeLine="45" fill="#F1F1F1" height="48" id="CreadorMovimiento" rx="2.5" ry="2.5" style="stroke:#181818;stroke-width:0.5;" width="166" x="1073" y="902.2969"/><ellipse cx="1088" cy="918.2969" fill="#A9DCDF" rx="11" ry="11" style="stroke:#181818;stroke-width:1.0;"/><path d="M1088.1094,913.6406 L1086.9531,918.7188 L1089.2813,918.7188 L1088.1094,913.6406 Z M1086.625,911.4063 L1089.6094,911.4063 L1092.9688,923.7969 L1090.5156,923.7969 L1089.75,920.7344 L1086.4688,920.7344 L1085.7188,923.7969 L1083.2813,923.7969 L1086.625,911.4063 Z " fill="#000000"/><text fill="#000000" font-family="sans-serif" font-size="14" font-style="italic" lengthAdjust="spacing" textLength="134" x="1102" y="923.1436">CreadorMovimiento</text><line style="stroke:#181818;stroke-width:0.5;" x1="1074" x2="1238" y1="934.2969" y2="934.2969"/><line style="stroke:#181818;stroke-width:0.5;" x1="1074" x2="1238" y1="942.2969" y2="942.2969"/></g><!--MD5=[6631f3d98dc6743947a5fba31b4aa89c]
class CreadorMovimientoAgua--><g id="elem_CreadorMovimientoAgua"><rect codeLine="46" fill="#F1F1F1" height="48" id="CreadorMovimientoAgua" rx="2.5" ry="2.5" style="stroke:#181818;stroke-width:0.5;" width="201" x="1274.5" y="902.2969"/><ellipse cx="1289.5" cy="918.2969" fill="#ADD1B2" rx="11" ry="11" style="stroke:#181818;stroke-width:1.0;"/><path d="M1292.4688,923.9375 Q1291.8906,924.2344 1291.25,924.375 Q1290.6094,924.5313 1289.9063,924.5313 Q1287.4063,924.5313 1286.0781,922.8906 Q1284.7656,921.2344 1284.7656,918.1094 Q1284.7656,914.9844 1286.0781,913.3281 Q1287.4063,911.6719 1289.9063,911.6719 Q1290.6094,911.6719 1291.25,911.8281 Q1291.9063,911.9844 1292.4688,912.2813 L1292.4688,915 Q1291.8438,914.4219 1291.25,914.1563 Q1290.6563,913.875 1290.0313,913.875 Q1288.6875,913.875 1288,914.9531 Q1287.3125,916.0156 1287.3125,918.1094 Q1287.3125,920.2031 1288,921.2813 Q1288.6875,922.3438 1290.0313,922.3438 Q1290.6563,922.3438 1291.25,922.0781 Q1291.8438,921.7969 1292.4688,921.2188 L1292.4688,923.9375 Z " fill="#000000"/><text fill="#000000" font-family="sans-serif" font-size="14" lengthAdjust="spacing" textLength="169" x="1303.5" y="923.1436">CreadorMovimientoAgua</text><line style="stroke:#181818;stroke-width:0.5;" x1="1275.5" x2="1474.5" y1="934.2969" y2="934.2969"/><line style="stroke:#181818;stroke-width:0.5;" x1="1275.5" x2="1474.5" y1="942.2969" y2="942.2969"/></g><!--MD5=[0e5ca955d0e51fa6c8144167627bef3f]
class CreadorMovimientoAire--><g id="elem_CreadorMovimientoAire"><rect codeLine="47" fill="#F1F1F1" height="48" id="CreadorMovimientoAire" rx="2.5" ry="2.5" style="stroke:#181818;stroke-width:0.5;" width="192" x="1511" y="902.2969"/><ellipse cx="1526" cy="918.2969" fill="#ADD1B2" rx="11" ry="11" style="stroke:#181818;stroke-width:1.0;"/><path d="M1528.9688,923.9375 Q1528.3906,924.2344 1527.75,924.375 Q1527.1094,924.5313 1526.4063,924.5313 Q1523.9063,924.5313 1522.5781,922.8906 Q1521.2656,921.2344 1521.2656,918.1094 Q1521.2656,914.9844 1522.5781,913.3281 Q1523.9063,911.6719 1526.4063,911.6719 Q1527.1094,911.6719 1527.75,911.8281 Q1528.4063,911.9844 1528.9688,912.2813 L1528.9688,915 Q1528.3438,914.4219 1527.75,914.1563 Q1527.1563,913.875 1526.5313,913.875 Q1525.1875,913.875 1524.5,914.9531 Q1523.8125,916.0156 1523.8125,918.1094 Q1523.8125,920.2031 1524.5,921.2813 Q1525.1875,922.3438 1526.5313,922.3438 Q1527.1563,922.3438 1527.75,922.0781 Q1528.3438,921.7969 1528.9688,921.2188 L1528.9688,923.9375 Z " fill="#000000"/><text fill="#000000" font-family="sans-serif" font-size="14" lengthAdjust="spacing" textLength="160" x="1540" y="923.1436">CreadorMovimientoAire</text><line style="stroke:#181818;stroke-width:0.5;" x1="1512" x2="1702" y1="934.2969" y2="934.2969"/><line style="stroke:#181818;stroke-width:0.5;" x1="1512" x2="1702" y1="942.2969" y2="942.2969"/></g><!--MD5=[285dd560ebbea2750bd3acc783cab2cd]
class CreadorMovimientoElectrico--><g id="elem_CreadorMovimientoElectrico"><rect codeLine="48" fill="#F1F1F1" height="48" id="CreadorMovimientoElectrico" rx="2.5" ry="2.5" style="stroke:#181818;stroke-width:0.5;" width="225" x="1062.5" y="1029.2969"/><ellipse cx="1077.5" cy="1045.2969" fill="#ADD1B2" rx="11" ry="11" style="stroke:#181818;stroke-width:1.0;"/><path d="M1080.4688,1050.9375 Q1079.8906,1051.2344 1079.25,1051.375 Q1078.6094,1051.5313 1077.9063,1051.5313 Q1075.4063,1051.5313 1074.0781,1049.8906 Q1072.7656,1048.2344 1072.7656,1045.1094 Q1072.7656,1041.9844 1074.0781,1040.3281 Q1075.4063,1038.6719 1077.9063,1038.6719 Q1078.6094,1038.6719 1079.25,1038.8281 Q1079.9063,1038.9844 1080.4688,1039.2813 L1080.4688,1042 Q1079.8438,1041.4219 1079.25,1041.1563 Q1078.6563,1040.875 1078.0313,1040.875 Q1076.6875,1040.875 1076,1041.9531 Q1075.3125,1043.0156 1075.3125,1045.1094 Q1075.3125,1047.2031 1076,1048.2813 Q1076.6875,1049.3438 1078.0313,1049.3438 Q1078.6563,1049.3438 1079.25,1049.0781 Q1079.8438,1048.7969 1080.4688,1048.2188 L1080.4688,1050.9375 Z " fill="#000000"/><text fill="#000000" font-family="sans-serif" font-size="14" lengthAdjust="spacing" textLength="193" x="1091.5" y="1050.1436">CreadorMovimientoElectrico</text><line style="stroke:#181818;stroke-width:0.5;" x1="1063.5" x2="1286.5" y1="1061.2969" y2="1061.2969"/><line style="stroke:#181818;stroke-width:0.5;" x1="1063.5" x2="1286.5" y1="1069.2969" y2="1069.2969"/></g><!--MD5=[a3c2f9b85a4784efbd14f6042f575909]
class CreadorMovimientoFuego--><g id="elem_CreadorMovimientoFuego"><rect codeLine="49" fill="#F1F1F1" height="48" id="CreadorMovimientoFuego" rx="2.5" ry="2.5" style="stroke:#181818;stroke-width:0.5;" width="210" x="1323" y="1029.2969"/><ellipse cx="1338" cy="1045.2969" fill="#ADD1B2" rx="11" ry="11" style="stroke:#181818;stroke-width:1.0;"/><path d="M1340.9688,1050.9375 Q1340.3906,1051.2344 1339.75,1051.375 Q1339.1094,1051.5313 1338.4063,1051.5313 Q1335.9063,1051.5313 1334.5781,1049.8906 Q1333.2656,1048.2344 1333.2656,1045.1094 Q1333.2656,1041.9844 1334.5781,1040.3281 Q1335.9063,1038.6719 1338.4063,1038.6719 Q1339.1094,1038.6719 1339.75,1038.8281 Q1340.4063,1038.9844 1340.9688,1039.2813 L1340.9688,1042 Q1340.3438,1041.4219 1339.75,1041.1563 Q1339.1563,1040.875 1338.5313,1040.875 Q1337.1875,1040.875 1336.5,1041.9531 Q1335.8125,1043.0156 1335.8125,1045.1094 Q1335.8125,1047.2031 1336.5,1048.2813 Q1337.1875,1049.3438 1338.5313,1049.3438 Q1339.1563,1049.3438 1339.75,1049.0781 Q1340.3438,1048.7969 1340.9688,1048.2188 L1340.9688,1050.9375 Z " fill="#000000"/><text fill="#000000" font-family="sans-serif" font-size="14" lengthAdjust="spacing" textLength="178" x="1352" y="1050.1436">CreadorMovimientoFuego</text><line style="stroke:#181818;stroke-width:0.5;" x1="1324" x2="1532" y1="1061.2969" y2="1061.2969"/><line style="stroke:#181818;stroke-width:0.5;" x1="1324" x2="1532" y1="1069.2969" y2="1069.2969"/></g><!--MD5=[dbc7b3c29a8bff8d1809cd1560c0f094]
class CreadorMovimientoPsiquico--><g id="elem_CreadorMovimientoPsiquico"><rect codeLine="50" fill="#F1F1F1" height="48" id="CreadorMovimientoPsiquico" rx="2.5" ry="2.5" style="stroke:#181818;stroke-width:0.5;" width="224" x="1568" y="1029.2969"/><ellipse cx="1583" cy="1045.2969" fill="#ADD1B2" rx="11" ry="11" style="stroke:#181818;stroke-width:1.0;"/><path d="M1585.9688,1050.9375 Q1585.3906,1051.2344 1584.75,1051.375 Q1584.1094,1051.5313 1583.4063,1051.5313 Q1580.9063,1051.5313 1579.5781,1049.8906 Q1578.2656,1048.2344 1578.2656,1045.1094 Q1578.2656,1041.9844 1579.5781,1040.3281 Q1580.9063,1038.6719 1583.4063,1038.6719 Q1584.1094,1038.6719 1584.75,1038.8281 Q1585.4063,1038.9844 1585.9688,1039.2813 L1585.9688,1042 Q1585.3438,1041.4219 1584.75,1041.1563 Q1584.1563,1040.875 1583.5313,1040.875 Q1582.1875,1040.875 1581.5,1041.9531 Q1580.8125,1043.0156 1580.8125,1045.1094 Q1580.8125,1047.2031 1581.5,1048.2813 Q1582.1875,1049.3438 1583.5313,1049.3438 Q1584.1563,1049.3438 1584.75,1049.0781 Q1585.3438,1048.7969 1585.9688,1048.2188 L1585.9688,1050.9375 Z " fill="#000000"/><text fill="#000000" font-family="sans-serif" font-size="14" lengthAdjust="spacing" textLength="192" x="1597" y="1050.1436">CreadorMovimientoPsiquico</text><line style="stroke:#181818;stroke-width:0.5;" x1="1569" x2="1791" y1="1061.2969" y2="1061.2969"/><line style="stroke:#181818;stroke-width:0.5;" x1="1569" x2="1791" y1="1069.2969" y2="1069.2969"/></g><!--MD5=[ad62c74fcd4a84ca2f7ac3dec58e735a]
class CreadorMovimientoTierra--><g id="elem_CreadorMovimientoTierra"><rect codeLine="51" fill="#F1F1F1" height="48" id="CreadorMovimientoTierra" rx="2.5" ry="2.5" style="stroke:#181818;stroke-width:0.5;" width="205" x="1072.5" y="1138.2969"/><ellipse cx="1087.5" cy="1154.2969" fill="#ADD1B2" rx="11" ry="11" style="stroke:#181818;stroke-width:1.0;"/><path d="M1090.4688,1159.9375 Q1089.8906,1160.2344 1089.25,1160.375 Q1088.6094,1160.5313 1087.9063,1160.5313 Q1085.4063,1160.5313 1084.0781,1158.8906 Q1082.7656,1157.2344 1082.7656,1154.1094 Q1082.7656,1150.9844 1084.0781,1149.3281 Q1085.4063,1147.6719 1087.9063,1147.6719 Q1088.6094,1147.6719 1089.25,1147.8281 Q1089.9063,1147.9844 1090.4688,1148.2813 L1090.4688,1151 Q1089.8438,1150.4219 1089.25,1150.1563 Q1088.6563,1149.875 1088.0313,1149.875 Q1086.6875,1149.875 1086,1150.9531 Q1085.3125,1152.0156 1085.3125,1154.1094 Q1085.3125,1156.2031 1086,1157.2813 Q1086.6875,1158.3438 1088.0313,1158.3438 Q1088.6563,1158.3438 1089.25,1158.0781 Q1089.8438,1157.7969 1090.4688,1157.2188 L1090.4688,1159.9375 Z " fill="#000000"/><text fill="#000000" font-family="sans-serif" font-size="14" lengthAdjust="spacing" textLength="173" x="1101.5" y="1159.1436">CreadorMovimientoTierra</text><line style="stroke:#181818;stroke-width:0.5;" x1="1073.5" x2="1276.5" y1="1170.2969" y2="1170.2969"/><line style="stroke:#181818;stroke-width:0.5;" x1="1073.5" x2="1276.5" y1="1178.2969" y2="1178.2969"/></g><!--MD5=[021036a378f2bfd27b8adfc42d4ea794]
class PokemonCatalogo--><g id="elem_PokemonCatalogo"><rect codeLine="55" fill="#F1F1F1" height="48" id="PokemonCatalogo" rx="2.5" ry="2.5" style="stroke:#181818;stroke-width:0.5;" width="159" x="1899.5" y="703.2969"/><ellipse cx="1914.5" cy="719.2969" fill="#ADD1B2" rx="11" ry="11" style="stroke:#181818;stroke-width:1.0;"/><path d="M1917.4688,724.9375 Q1916.8906,725.2344 1916.25,725.375 Q1915.6094,725.5313 1914.9063,725.5313 Q1912.4063,725.5313 1911.0781,723.8906 Q1909.7656,722.2344 1909.7656,719.1094 Q1909.7656,715.9844 1911.0781,714.3281 Q1912.4063,712.6719 1914.9063,712.6719 Q1915.6094,712.6719 1916.25,712.8281 Q1916.9063,712.9844 1917.4688,713.2813 L1917.4688,716 Q1916.8438,715.4219 1916.25,715.1563 Q1915.6563,714.875 1915.0313,714.875 Q1913.6875,714.875 1913,715.9531 Q1912.3125,717.0156 1912.3125,719.1094 Q1912.3125,721.2031 1913,722.2813 Q1913.6875,723.3438 1915.0313,723.3438 Q1915.6563,723.3438 1916.25,723.0781 Q1916.8438,722.7969 1917.4688,722.2188 L1917.4688,724.9375 Z " fill="#000000"/><text fill="#000000" font-family="sans-serif" font-size="14" lengthAdjust="spacing" textLength="127" x="1928.5" y="724.1436">PokemonCatalogo</text><line style="stroke:#181818;stroke-width:0.5;" x1="1900.5" x2="2057.5" y1="735.2969" y2="735.2969"/><line style="stroke:#181818;stroke-width:0.5;" x1="1900.5" x2="2057.5" y1="743.2969" y2="743.2969"/></g><!--MD5=[fa4ab29906bae34d379fe1082b42362f]
class ObjetoCatalogo--><g id="elem_ObjetoCatalogo"><rect codeLine="56" fill="#F1F1F1" height="48" id="ObjetoCatalogo" rx="2.5" ry="2.5" style="stroke:#181818;stroke-width:0.5;" width="139" x="2093.5" y="703.2969"/><ellipse cx="2108.5" cy="719.2969" fill="#ADD1B2" rx="11" ry="11" style="stroke:#181818;stroke-width:1.0;"/><path d="M2111.4688,724.9375 Q2110.8906,725.2344 2110.25,725.375 Q2109.6094,725.5313 2108.9063,725.5313 Q2106.4063,725.5313 2105.0781,723.8906 Q2103.7656,722.2344 2103.7656,719.1094 Q2103.7656,715.9844 2105.0781,714.3281 Q2106.4063,712.6719 2108.9063,712.6719 Q2109.6094,712.6719 2110.25,712.8281 Q2110.9063,712.9844 2111.4688,713.2813 L2111.4688,716 Q2110.8438,715.4219 2110.25,715.1563 Q2109.6563,714.875 2109.0313,714.875 Q2107.6875,714.875 2107,715.9531 Q2106.3125,717.0156 2106.3125,719.1094 Q2106.3125,721.2031 2107,722.2813 Q2107.6875,723.3438 2109.0313,723.3438 Q2109.6563,723.3438 2110.25,723.0781 Q2110.8438,722.7969 2111.4688,722.2188 L2111.4688,724.9375 Z " fill="#000000"/><text fill="#000000" font-family="sans-serif" font-size="14" lengthAdjust="spacing" textLength="107" x="2122.5" y="724.1436">ObjetoCatalogo</text><line style="stroke:#181818;stroke-width:0.5;" x1="2094.5" x2="2231.5" y1="735.2969" y2="735.2969"/><line style="stroke:#181818;stroke-width:0.5;" x1="2094.5" x2="2231.5" y1="743.2969" y2="743.2969"/></g><!--MD5=[19b82e42e609a55c142084d73caa90b9]
class EntrenadorCatalogo--><g id="elem_EntrenadorCatalogo"><rect codeLine="57" fill="#F1F1F1" height="48" id="EntrenadorCatalogo" rx="2.5" ry="2.5" style="stroke:#181818;stroke-width:0.5;" width="170" x="1900" y="902.2969"/><ellipse cx="1915" cy="918.2969" fill="#ADD1B2" rx="11" ry="11" style="stroke:#181818;stroke-width:1.0;"/><path d="M1917.9688,923.9375 Q1917.3906,924.2344 1916.75,924.375 Q1916.1094,924.5313 1915.4063,924.5313 Q1912.9063,924.5313 1911.5781,922.8906 Q1910.2656,921.2344 1910.2656,918.1094 Q1910.2656,914.9844 1911.5781,913.3281 Q1912.9063,911.6719 1915.4063,911.6719 Q1916.1094,911.6719 1916.75,911.8281 Q1917.4063,911.9844 1917.9688,912.2813 L1917.9688,915 Q1917.3438,914.4219 1916.75,914.1563 Q1916.1563,913.875 1915.5313,913.875 Q1914.1875,913.875 1913.5,914.9531 Q1912.8125,916.0156 1912.8125,918.1094 Q1912.8125,920.2031 1913.5,921.2813 Q1914.1875,922.3438 1915.5313,922.3438 Q1916.1563,922.3438 1916.75,922.0781 Q1917.3438,921.7969 1917.9688,921.2188 L1917.9688,923.9375 Z " fill="#000000"/><text fill="#000000" font-family="sans-serif" font-size="14" lengthAdjust="spacing" textLength="138" x="1929" y="923.1436">EntrenadorCatalogo</text><line style="stroke:#181818;stroke-width:0.5;" x1="1901" x2="2069" y1="934.2969" y2="934.2969"/><line style="stroke:#181818;stroke-width:0.5;" x1="1901" x2="2069" y1="942.2969" y2="942.2969"/></g><!--MD5=[9673d41081b10063bc473b56e50cf149]
class GameRepository--><g id="elem_GameRepository"><rect codeLine="61" fill="#F1F1F1" height="48" id="GameRepository" rx="2.5" ry="2.5" style="stroke:#181818;stroke-width:0.5;" width="147" x="2336.5" y="504.2969"/><ellipse cx="2351.5" cy="520.2969" fill="#ADD1B2" rx="11" ry="11" style="stroke:#181818;stroke-width:1.0;"/><path d="M2354.4688,525.9375 Q2353.8906,526.2344 2353.25,526.375 Q2352.6094,526.5313 2351.9063,526.5313 Q2349.4063,526.5313 2348.0781,524.8906 Q2346.7656,523.2344 2346.7656,520.1094 Q2346.7656,516.9844 2348.0781,515.3281 Q2349.4063,513.6719 2351.9063,513.6719 Q2352.6094,513.6719 2353.25,513.8281 Q2353.9063,513.9844 2354.4688,514.2813 L2354.4688,517 Q2353.8438,516.4219 2353.25,516.1563 Q2352.6563,515.875 2352.0313,515.875 Q2350.6875,515.875 2350,516.9531 Q2349.3125,518.0156 2349.3125,520.1094 Q2349.3125,522.2031 2350,523.2813 Q2350.6875,524.3438 2352.0313,524.3438 Q2352.6563,524.3438 2353.25,524.0781 Q2353.8438,523.7969 2354.4688,523.2188 L2354.4688,525.9375 Z " fill="#000000"/><text fill="#000000" font-family="sans-serif" font-size="14" lengthAdjust="spacing" textLength="115" x="2365.5" y="525.1436">GameRepository</text><line style="stroke:#181818;stroke-width:0.5;" x1="2337.5" x2="2482.5" y1="536.2969" y2="536.2969"/><line style="stroke:#181818;stroke-width:0.5;" x1="2337.5" x2="2482.5" y1="544.2969" y2="544.2969"/></g><!--MD5=[0487bfa51525cf5b1bae689a54e16772]
link app to controller--><g id="link_app_controller"><path d="M539,178.4998 C539,183.6786 539,189.1198 539,194.7359 C539,205.968 539,217.8997 539,229.8306 C539,232.8134 539,235.796 539,238.7678 C539,240.2536 539,241.7367 539,243.2157 " fill="none" id="app-to-controller" style="stroke:#181818;stroke-width:1.0;stroke-dasharray:7.0,7.0;"/><polygon fill="#181818" points="539,243.2157,543,234.2157,539,238.2157,535,234.2157,539,243.2157" style="stroke:#181818;stroke-width:1.0;"/><text fill="#000000" font-family="sans-serif" font-size="13" lengthAdjust="spacing" textLength="23" x="540" y="215.3638">usa</text></g><!--MD5=[5f0b00c971a99896fd5d59759e823fce]
link app to view--><g id="link_app_view"><path d="M530.6129,137.4482 C530.297,137.6845 529.9729,137.9274 529.6407,138.1767 C524.3263,142.1663 516.9473,147.8188 508.0241,154.9444 C490.1775,169.1956 466.1538,189.3394 440.115,213.8569 C388.0375,262.8919 327.9,329.4219 293,401.2969 C286.8975,413.8644 282.5269,427.8769 279.4053,441.8622 " fill="none" id="app-to-view" style="stroke:#181818;stroke-width:1.0;stroke-dasharray:7.0,7.0;"/><polygon fill="#181818" points="279.4053,441.8622,285.2698,433.9497,280.4945,436.9823,277.462,432.207,279.4053,441.8622" style="stroke:#181818;stroke-width:1.0;"/><text fill="#000000" font-family="sans-serif" font-size="13" lengthAdjust="spacing" textLength="28" x="426" y="333.8638">crea</text></g><!--MD5=[918a8e539fae7a80b65770b81ddac435]
link app to persistence--><g id="link_app_persistence"><path d="M546.2982,178.4874 C546.4836,178.8912 546.6734,179.2928 546.8678,179.6919 C547.2565,180.49 547.6636,181.278 548.0897,182.0539 C548.9419,183.6058 549.8704,185.1095 550.8819,186.5493 C552.905,189.4289 555.26,192.0531 558,194.2969 C588.14,218.9769 868.51,221.3569 907,227.2969 C1217.715,275.2519 1563.2175,349.4594 1832.5225,412.0694 C1967.175,443.3744 2082.7781,471.78 2165.4588,492.555 C2206.7991,502.9425 2239.9088,511.4223 2263.0537,517.4031 C2274.6261,520.3935 2283.7074,522.7591 2290.0807,524.4261 C2290.8774,524.6344 2291.6317,524.8319 2292.3433,525.0183 " fill="none" id="app-to-persistence" style="stroke:#181818;stroke-width:1.0;stroke-dasharray:7.0,7.0;"/><polygon fill="#181818" points="2292.3433,525.0183,2284.6505,518.8684,2287.5065,523.7514,2282.6235,526.6074,2292.3433,525.0183" style="stroke:#181818;stroke-width:1.0;"/><text fill="#000000" font-family="sans-serif" font-size="13" lengthAdjust="spacing" textLength="28" x="1747" y="333.8638">crea</text></g><!--MD5=[80ff8b53e28f65de5e3bf20865251e4f]
link controller to view--><g id="link_controller_view"><path d="M530.7285,330.7386 C530.4167,330.7595 530.0968,330.7814 529.7689,330.8043 C524.5225,331.1702 517.2306,331.7828 508.395,332.7925 C490.7238,334.8119 466.8775,338.4194 440.87,344.8169 C388.855,357.6119 328.195,381.5669 291,426.2969 C287.4063,430.6181 284.4092,435.4052 281.9165,440.4779 C281.7607,440.795 281.6068,441.1131 281.455,441.4324 C281.379,441.592 281.3036,441.7519 281.2286,441.912 " fill="none" id="controller-to-view" style="stroke:#181818;stroke-width:1.0;stroke-dasharray:7.0,7.0;"/><polygon fill="#181818" points="281.2286,441.912,288.667,435.4568,283.3484,437.3836,281.4216,432.065,281.2286,441.912" style="stroke:#181818;stroke-width:1.0;"/><text fill="#000000" font-family="sans-serif" font-size="13" lengthAdjust="spacing" textLength="91" x="318" y="414.3638">entrada/salida</text></g><!--MD5=[7e32a097be010eedbcd0f8c178ded199]
link controller to service--><g id="link_controller_service"><path d="M530.937,340.1949 C530.6673,340.5079 530.3916,340.8266 530.1098,341.1505 C529.5462,341.7985 528.9586,342.4678 528.3478,343.1563 C527.1262,344.5334 525.8119,345.9873 524.4112,347.5005 C521.6099,350.527 518.4634,353.7909 515.0238,357.1531 C501.265,370.6019 482.815,385.6219 463,393.2969 C427.73,406.9569 330.59,397.1469 293,401.2969 C228.87,408.3869 202.96,389.4369 150,426.2969 C90.935,467.4069 57.3075,540.7244 38.3863,604.5856 C36.0211,612.5683 33.8857,620.4032 31.9592,628.009 C30.9959,631.8118 30.0848,635.5574 29.2234,639.2356 C29.1157,639.6954 29.0088,640.1541 28.9026,640.6117 " fill="none" id="controller-to-service" style="stroke:#181818;stroke-width:1.0;stroke-dasharray:7.0,7.0;"/><polygon fill="#181818" points="28.9026,640.6117,34.8326,632.7482,30.0323,635.741,27.0394,630.9407,28.9026,640.6117" style="stroke:#181818;stroke-width:1.0;"/><text fill="#000000" font-family="sans-serif" font-size="13" lengthAdjust="spacing" textLength="104" x="151" y="532.8638">orquesta batalla</text></g><!--MD5=[510253e1c537a1e9aff19211ccd0002d]
link controller to persistence--><g id="link_controller_persistence"><path d="M546.231,377.5682 C546.417,377.9713 546.6075,378.3721 546.8026,378.7702 C547.1928,379.5665 547.6014,380.3525 548.0294,381.1262 C548.8853,382.6735 549.8185,384.1716 550.8356,385.6046 C552.8698,388.4708 555.24,391.0769 558,393.2969 C567.425,400.8769 999.815,434.1444 1431.5188,465.6319 C1647.3706,481.3756 1863.0509,496.6744 2025.6033,508.0947 C2106.8795,513.8048 2174.8736,518.5454 2222.9663,521.8871 C2247.0126,523.558 2266.0835,524.8792 2279.3516,525.797 C2282.6686,526.0265 2285.623,526.2308 2288.2017,526.409 C2289.4911,526.4981 2290.6866,526.5806 2291.7865,526.6566 " fill="none" id="controller-to-persistence" style="stroke:#181818;stroke-width:1.0;stroke-dasharray:7.0,7.0;"/><polygon fill="#181818" points="2291.7865,526.6566,2283.0835,522.046,2286.7984,526.3121,2282.5323,530.027,2291.7865,526.6566" style="stroke:#181818;stroke-width:1.0;"/><text fill="#000000" font-family="sans-serif" font-size="13" lengthAdjust="spacing" textLength="95" x="782" y="414.3638">guardar/cargar</text></g><!--MD5=[648f4a06bd4904f4a697bc3032b7091d]
link controller to util--><g id="link_controller_util"><path d="M547.9232,377.5672 C548.2888,378.39 548.6692,379.2063 549.0652,380.0144 C549.8571,381.6305 550.7112,383.2135 551.6321,384.7499 C553.4741,387.8225 555.5838,390.7081 558,393.2969 C579.4,416.2269 594.06,408.9469 624,418.2969 C892.895,502.2919 1200.17,578.7494 1441.5675,634.4756 C1562.2663,662.3388 1666.4956,685.0191 1741.2234,700.8673 C1778.5873,708.7915 1808.5759,715.0076 1829.56,719.3096 C1840.052,721.4606 1848.293,723.133 1854.0792,724.3012 C1854.4408,724.3742 1854.7929,724.4452 1855.1353,724.5143 " fill="none" id="controller-to-util" style="stroke:#181818;stroke-width:1.0;stroke-dasharray:7.0,7.0;"/><polygon fill="#181818" points="1855.1353,724.5143,1847.1038,718.8138,1850.234,723.5257,1845.5221,726.6559,1855.1353,724.5143" style="stroke:#181818;stroke-width:1.0;"/><text fill="#000000" font-family="sans-serif" font-size="13" lengthAdjust="spacing" textLength="62" x="1260" y="532.8638">catálogos</text></g><!--MD5=[ddb961bca840c7c0b57e5b8ac713b6ba]
link controller to model--><g id="link_controller_model"><path d="M545.8728,377.5486 C545.9192,377.649 545.9659,377.7493 546.0129,377.8494 C546.2009,378.2499 546.3935,378.6479 546.5909,379.0431 C546.9858,379.8334 547.3997,380.6125 547.8337,381.3784 C548.7017,382.9102 549.6498,384.389 550.6851,385.7987 C552.7556,388.618 555.175,391.1606 558,393.2969 C568.76,401.4369 2489.1,418.3569 2500,426.2969 C2633.41,523.4169 2656.85,652.2469 2568,791.2969 C2553.76,813.5869 2539.7,810.0669 2514,816.2969 C2493.46,821.2769 2339.98,810.4669 2324,824.2969 C2319.75,827.9756 2316.2583,832.2783 2313.4026,836.9956 C2313.0456,837.5853 2312.6986,838.1814 2312.3613,838.7836 C2312.1926,839.0847 2312.0264,839.3874 2311.8625,839.6915 C2311.7806,839.8435 2311.6993,839.9959 2311.6185,840.1487 " fill="none" id="controller-to-model" style="stroke:#181818;stroke-width:1.0;stroke-dasharray:7.0,7.0;"/><polygon fill="#181818" points="2311.6185,840.1487,2319.36,834.0601,2313.9546,835.7279,2312.2868,830.3225,2311.6185,840.1487" style="stroke:#181818;stroke-width:1.0;"/><text fill="#000000" font-family="sans-serif" font-size="13" lengthAdjust="spacing" textLength="114" x="2621" y="613.3638">inventario/objetos</text></g><!--MD5=[5f74731e838da81ac1194b8c25570305]
link controller to model_pokemon--><g id="link_controller_model_pokemon"><path d="M543.0527,378.5162 C543.1553,380.4428 543.2544,382.4172 543.3489,384.4378 C544.8616,416.7669 545.2206,460.8956 540.7662,509.3169 C531.8575,606.1594 503.695,720.1719 427,791.2969 C376.8,837.8469 342.94,807.8369 275,816.2969 C264.6,817.5969 188.39,816.8669 181,824.2969 C177.0938,828.2256 174.0277,832.7167 171.6541,837.5723 C171.3574,838.1792 171.0715,838.7919 170.7962,839.4098 C170.7274,839.5643 170.6592,839.7191 170.5917,839.8743 " fill="none" id="controller-to-model_pokemon" style="stroke:#181818;stroke-width:1.0;stroke-dasharray:7.0,7.0;"/><polygon fill="#181818" points="170.5917,839.8743,177.851,833.2183,172.587,835.2897,170.5156,830.0257,170.5917,839.8743" style="stroke:#181818;stroke-width:1.0;"/><text fill="#000000" font-family="sans-serif" font-size="13" lengthAdjust="spacing" textLength="51" x="527" y="613.3638">dominio</text></g><!--MD5=[4dfd3b02fd6301fae524512e047e6049]
link view to service--><g id="link_view_service"><path d="M263.9479,562.6017 C263.8678,562.8129 263.787,563.0243 263.7054,563.2358 C263.5423,563.6588 263.3761,564.0823 263.2069,564.506 C261.8529,567.8959 260.302,571.3016 258.528,574.6067 C254.98,581.2169 250.54,587.4244 245,592.2969 C241.18,595.6569 162.01,616.4369 157,617.2969 C143.5,619.6269 44.25,616.2169 34,625.2969 C29.7925,629.0231 26.3328,633.3616 23.5006,638.1051 C23.1466,638.6981 22.8024,639.2973 22.4677,639.9025 C22.3004,640.2051 22.1354,640.5092 21.9729,640.8147 C21.8916,640.9675 21.8109,641.1206 21.7308,641.2741 " fill="none" id="view-to-service" style="stroke:#181818;stroke-width:1.0;stroke-dasharray:7.0,7.0;"/><polygon fill="#181818" points="21.7308,641.2741,29.4414,635.1466,24.0445,636.8416,22.3495,631.4447,21.7308,641.2741" style="stroke:#181818;stroke-width:1.0;"/><text fill="#000000" font-family="sans-serif" font-size="13" lengthAdjust="spacing" textLength="137" x="220" y="613.3638">implementa observer</text></g><!--MD5=[826f3f91c4d829fd9593e4cbf7427d27]
link view to model--><g id="link_view_model"><path d="M278.8728,576.5486 C278.9192,576.649 278.9659,576.7493 279.0129,576.8494 C279.2009,577.2499 279.3935,577.6479 279.5909,578.0431 C279.9858,578.8334 280.3997,579.6125 280.8337,580.3784 C281.7017,581.9102 282.6498,583.389 283.6851,584.7987 C285.7556,587.618 288.175,590.1606 291,592.2969 C301.85,600.4969 2238.61,616.5169 2249,625.2969 C2299.995,668.3819 2314.3575,741.7294 2315.7938,805.1131 C2315.9733,813.0361 2315.9508,820.8034 2315.7727,828.3364 C2315.6837,832.1029 2315.5557,835.8109 2315.3946,839.4505 " fill="none" id="view-to-model" style="stroke:#181818;stroke-width:1.0;stroke-dasharray:7.0,7.0;"/><polygon fill="#181818" points="2315.3946,839.4505,2319.7887,830.6361,2315.6157,834.4553,2311.7965,830.2824,2315.3946,839.4505" style="stroke:#181818;stroke-width:1.0;"/><text fill="#000000" font-family="sans-serif" font-size="13" lengthAdjust="spacing" textLength="54" x="2316" y="731.8638">muestra</text></g><!--MD5=[a6e9bccd740ffde78ad24b06336755fd]
link view to model_pokemon--><g id="link_view_model_pokemon"><path d="M279.3531,576.4202 C279.5379,576.8247 279.7272,577.2269 279.921,577.6267 C280.3085,578.4262 280.7142,579.2158 281.1388,579.9936 C281.9879,581.5492 282.9127,583.0575 283.9197,584.5029 C285.9336,587.3938 288.2763,590.0331 291,592.2969 C303.55,602.7269 353.11,588.1469 364,600.2969 C369.04,605.9269 364.95,609.7969 364,617.2969 C353.92,696.5369 376,735.3369 319,791.2969 C274,835.4769 221.99,776.3769 181,824.2969 C177.3988,828.5081 174.5627,833.2122 172.3579,838.224 C172.0823,838.8505 171.8166,839.4818 171.5605,840.1175 " fill="none" id="view-to-model_pokemon" style="stroke:#181818;stroke-width:1.0;stroke-dasharray:7.0,7.0;"/><polygon fill="#181818" points="171.5605,840.1175,178.6339,833.2643,173.4289,835.4798,171.2135,830.2748,171.5605,840.1175" style="stroke:#181818;stroke-width:1.0;"/><text fill="#000000" font-family="sans-serif" font-size="13" lengthAdjust="spacing" textLength="54" x="364" y="731.8638">muestra</text></g><!--MD5=[1cf19d5fc9856fe23595ce76028854b1]
link service to model_pokemon--><g id="link_service_model_pokemon"><path d="M26.276,775.4318 C26.4429,775.8576 26.612,776.2827 26.7834,776.7069 C27.4691,778.4038 28.1918,780.0868 28.9533,781.7446 C30.4761,785.06 32.1538,788.2744 34,791.2969 C56.015,827.3419 90.0325,860.3669 118.9038,884.6131 C133.3394,896.7362 146.4884,906.6647 156.2073,913.6786 C158.6371,915.4321 160.8524,917.0034 162.8199,918.3813 C163.3117,918.7258 163.7881,919.0582 164.2485,919.3783 C164.4787,919.5384 164.7048,919.6954 164.9269,919.8493 " fill="none" id="service-to-model_pokemon" style="stroke:#181818;stroke-width:1.0;stroke-dasharray:7.0,7.0;"/><polygon fill="#181818" points="164.9269,919.8493,159.8077,911.4354,160.8172,917.0014,155.2512,918.0109,164.9269,919.8493" style="stroke:#181818;stroke-width:1.0;"/><text fill="#000000" font-family="sans-serif" font-size="13" lengthAdjust="spacing" textLength="104" x="50" y="812.3638">lógica de batalla</text></g><!--MD5=[7dfe0301f779e0e620f9e8188640487a]
link model to model_pokemon--><g id="link_model_model_pokemon"><path d="M2296.962,894.988 C2296.8592,894.6796 2296.7552,894.37 2296.6501,894.0593 C2296.2295,892.8163 2295.7906,891.5545 2295.3328,890.2772 C2294.417,887.7225 2293.4255,885.1058 2292.3537,882.4531 C2283.78,861.2319 2270.075,837.7119 2249,825.2969 C2199.5,796.1469 223.19,786.3169 181,825.2969 C165.24,839.8619 162.685,863.4819 164.3275,884.2194 C164.4302,885.5155 164.5492,886.8003 164.6825,888.071 C164.7491,888.7063 164.8193,889.3381 164.8927,889.966 C164.9111,890.1229 164.9296,890.2797 164.9484,890.4361 " fill="none" id="model-to-model_pokemon" style="stroke:#181818;stroke-width:1.0;stroke-dasharray:7.0,7.0;"/><polygon fill="#181818" points="164.9484,890.4361,167.8482,881.0238,164.353,885.4717,159.9051,881.9765,164.9484,890.4361" style="stroke:#181818;stroke-width:1.0;"/><text fill="#000000" font-family="sans-serif" font-size="13" lengthAdjust="spacing" textLength="88" x="1009" y="812.3638">aplica objetos</text></g><!--MD5=[071b23ab6e4904f5ae1b3cc0437c4c7e]
link model_pokemon to model--><g id="link_model_pokemon_model"><path d="M164.9484,890.4361 C164.9296,890.2797 164.9111,890.1229 164.8927,889.966 C164.8193,889.3381 164.7491,888.7063 164.6825,888.071 C164.5492,886.8003 164.4302,885.5155 164.3275,884.2194 C162.685,863.4819 165.24,839.8619 181,825.2969 C223.19,786.3169 2199.5,796.1469 2249,825.2969 C2270.075,837.7119 2283.78,861.2319 2292.3537,882.4531 C2293.4255,885.1058 2294.417,887.7225 2295.3328,890.2772 C2295.7906,891.5545 2296.2295,892.8163 2296.6501,894.0593 C2296.7552,894.37 2296.8592,894.6796 2296.962,894.988 " fill="none" id="model_pokemon-to-model" style="stroke:#181818;stroke-width:1.0;stroke-dasharray:7.0,7.0;"/><polygon fill="#181818" points="2296.962,894.988,2297.9091,885.1847,2295.3801,890.2448,2290.3201,887.7158,2296.962,894.988" style="stroke:#181818;stroke-width:1.0;"/><text fill="#000000" font-family="sans-serif" font-size="13" lengthAdjust="spacing" textLength="122" x="1104" y="812.3638">contiene inventario</text></g><!--MD5=[722bb5e5c3d5b6ae9af4ce808d19ccbe]
link util to factory--><g id="link_util_factory"><path d="M1854.9581,728.5313 C1854.5357,728.5425 1854.0991,728.554 1853.6483,728.566 C1852.7468,728.5899 1851.7889,728.6154 1850.7755,728.6425 C1842.6685,728.8591 1831.0118,729.1763 1816.3033,729.5922 C1786.8862,730.4239 1745.2618,731.65 1695.4123,733.2538 C1595.7134,736.4613 1463.1144,741.1794 1329.4737,747.2744 C1062.1925,759.4644 790.745,777.1619 770,799.2969 C764.83,804.8069 764.78,810.8369 770,816.2969 C783.84,830.7669 931.97,815.6069 950,824.2969 C976.395,837.0219 998.125,861.6869 1013.3875,883.4569 C1017.2031,888.8994 1020.6145,894.1609 1023.5936,899.0098 C1025.0831,901.4342 1026.4645,903.7554 1027.7343,905.9445 C1028.3692,907.039 1028.9762,908.1005 1029.5548,909.1254 C1029.6995,909.3816 1029.8424,909.6355 1029.9835,909.887 " fill="none" id="util-to-factory" style="stroke:#181818;stroke-width:1.0;stroke-dasharray:7.0,7.0;"/><polygon fill="#181818" points="1029.9835,909.887,1029.0691,900.0807,1027.5374,905.5262,1022.0919,903.9945,1029.9835,909.887" style="stroke:#181818;stroke-width:1.0;"/><text fill="#000000" font-family="sans-serif" font-size="13" lengthAdjust="spacing" textLength="115" x="771" y="812.3638">crea movimientos</text></g><!--MD5=[003b15e8b9bac4f0815eb3a773cf2278]
link util to model--><g id="link_util_model"><path d="M2257.0548,830.3348 C2257.2054,830.4632 2257.3556,830.5921 2257.5053,830.7216 C2257.8047,830.9806 2258.1025,831.2418 2258.3985,831.5051 C2258.9906,832.0317 2259.5759,832.5667 2260.1545,833.1099 C2261.3116,834.1961 2262.4418,835.3147 2263.5456,836.462 C2267.9608,841.0513 2271.9531,846.1017 2275.5544,851.3934 C2282.7569,861.9769 2288.395,873.5256 2292.7225,884.2819 C2293.8044,886.9709 2294.8043,889.6105 2295.7263,892.173 C2295.9569,892.8136 2296.1825,893.4495 2296.4033,894.08 C2296.5137,894.3953 2296.6229,894.7093 2296.7309,895.0219 C2296.7849,895.1782 2296.8386,895.3342 2296.8921,895.4898 C2296.9188,895.5676 2296.9454,895.6453 2296.972,895.723 " fill="none" id="util-to-model" style="stroke:#181818;stroke-width:1.0;stroke-dasharray:7.0,7.0;"/><polygon fill="#181818" points="2296.972,895.723,2297.8437,885.9128,2295.3537,890.9921,2290.2743,888.502,2296.972,895.723" style="stroke:#181818;stroke-width:1.0;"/><text fill="#000000" font-family="sans-serif" font-size="13" lengthAdjust="spacing" textLength="146" x="2230" y="812.3638">crea objetos/inventario</text></g><!--MD5=[2fc3359f8169894f1097977986a26ece]
link util to model_pokemon--><g id="link_util_model_pokemon"><path d="M1855.6215,728.5369 C1855.2288,728.5483 1854.8229,728.5602 1854.4037,728.5724 C1853.5653,728.597 1852.674,728.6231 1851.7306,728.6508 C1844.1832,728.8728 1833.299,729.1979 1819.4809,729.6234 C1791.8445,730.4744 1752.4722,731.7272 1704.5856,733.3606 C1608.8125,736.6275 1478.9825,741.4169 1340.87,747.5594 C1064.645,759.8444 755.29,777.5419 619,799.2969 C589.94,803.9369 584.14,812.1769 555,816.2969 C544.71,817.7569 188.56,817.1669 181,824.2969 C164.885,839.5119 162.695,864.2169 164.6263,885.3844 C164.6866,886.0459 164.751,886.7039 164.8191,887.3581 C164.8531,887.6852 164.8881,888.0113 164.924,888.3364 C164.9419,888.499 164.9601,888.6613 164.9785,888.8233 " fill="none" id="util-to-model_pokemon" style="stroke:#181818;stroke-width:1.0;stroke-dasharray:7.0,7.0;"/><polygon fill="#181818" points="164.9785,888.8233,167.9386,879.4298,164.4149,883.8552,159.9896,880.3315,164.9785,888.8233" style="stroke:#181818;stroke-width:1.0;"/><text fill="#000000" font-family="sans-serif" font-size="13" lengthAdjust="spacing" textLength="137" x="620" y="812.3638">crea pokemon/rivales</text></g><!--MD5=[063406bf25a888a9b4ea4e65c22f59ec]
link factory to model_pokemon--><g id="link_factory_model_pokemon"><path d="M1029.9552,851.0263 C1029.888,850.8674 1029.8203,850.7087 1029.7521,850.5502 C1029.6158,850.2333 1029.4777,849.9174 1029.3376,849.6025 C1029.0575,848.9727 1028.7698,848.3469 1028.4744,847.7255 C1027.8836,846.4828 1027.2618,845.2578 1026.6075,844.0537 C1025.2989,841.6454 1023.8604,839.3204 1022.2801,837.1035 C1019.1194,832.6697 1015.3913,828.6681 1011,825.2969 C974.43,797.2169 214.87,794.0069 181,825.2969 C165.24,839.8619 162.685,863.4819 164.3275,884.2194 C164.4302,885.5155 164.5492,886.8003 164.6825,888.071 C164.7491,888.7063 164.8193,889.3381 164.8927,889.966 C164.9111,890.1229 164.9296,890.2797 164.9484,890.4361 " fill="none" id="factory-to-model_pokemon" style="stroke:#181818;stroke-width:1.0;stroke-dasharray:7.0,7.0;"/><polygon fill="#181818" points="164.9484,890.4361,167.8482,881.0238,164.353,885.4717,159.9051,881.9765,164.9484,890.4361" style="stroke:#181818;stroke-width:1.0;"/><text fill="#000000" font-family="sans-serif" font-size="13" lengthAdjust="spacing" textLength="106" x="896" y="812.3638">crea Movimiento</text></g><!--MD5=[1513ae8569f3bea69430447efb359fcc]
link persistence to model--><g id="link_persistence_model"><path d="M2309.7252,576.312 C2309.7706,576.4149 2309.8162,576.5177 2309.862,576.6204 C2310.2289,577.442 2310.6109,578.257 2311.0086,579.0635 C2311.8041,580.6765 2312.6624,582.2558 2313.5887,583.7876 C2315.4411,586.8511 2317.565,589.7244 2320,592.2969 C2349.57,623.5469 2379.98,595.4869 2411,625.2969 C2476.29,688.0569 2544.4,750.6569 2482,816.2969 C2469.89,829.0369 2337.24,812.7369 2324,824.2969 C2319.7663,827.9931 2316.2867,832.3089 2313.4399,837.0358 C2313.0841,837.6267 2312.7381,838.2239 2312.4018,838.8273 C2312.2336,839.1289 2312.0679,839.4321 2311.9045,839.7367 C2311.8228,839.889 2311.7417,840.0416 2311.6612,840.1947 " fill="none" id="persistence-to-model" style="stroke:#181818;stroke-width:1.0;stroke-dasharray:7.0,7.0;"/><polygon fill="#181818" points="2311.6612,840.1947,2319.3912,834.0916,2313.989,835.7695,2312.311,830.3673,2311.6612,840.1947" style="stroke:#181818;stroke-width:1.0;"/><text fill="#000000" font-family="sans-serif" font-size="13" lengthAdjust="spacing" textLength="52" x="2507" y="731.8638">serializa</text></g><!--MD5=[2900937ee91cb36e82a790ffdc13a402]
link persistence to model_pokemon--><g id="link_persistence_model_pokemon"><path d="M2292.4121,529.907 C2292.0082,529.9364 2291.5903,529.9669 2291.1586,529.9985 C2290.2952,530.0617 2289.3764,530.1293 2288.4028,530.2012 C2280.6138,530.7763 2269.3158,531.6306 2254.8018,532.7802 C2225.7737,535.0795 2183.8815,538.5602 2131.4686,543.3523 C2026.6428,552.9366 1879.7344,567.7663 1709.4913,588.8806 C1369.005,631.1094 935.18,698.4769 558,799.2969 C537.75,804.7069 534.56,812.2069 514,816.2969 C495.85,819.9069 194.44,811.5769 181,824.2969 C164.905,839.5319 162.715,864.2369 164.6413,885.3994 C164.7014,886.0607 164.7657,886.7186 164.8336,887.3726 C164.8676,887.6996 164.9025,888.0256 164.9383,888.3507 C164.9561,888.5132 164.9743,888.6754 164.9926,888.8374 " fill="none" id="persistence-to-model_pokemon" style="stroke:#181818;stroke-width:1.0;stroke-dasharray:7.0,7.0;"/><polygon fill="#181818" points="164.9926,888.8374,167.9549,879.4446,164.4302,883.8692,160.0057,880.3444,164.9926,888.8374" style="stroke:#181818;stroke-width:1.0;"/><text fill="#000000" font-family="sans-serif" font-size="13" lengthAdjust="spacing" textLength="52" x="1424" y="731.8638">serializa</text></g><!--MD5=[c9e76a36a7ef1c20fe5761c9ce3bb345]
link persistence to util--><g id="link_persistence_util"><path d="M2292.3986,530.0327 C2291.935,530.0736 2291.454,530.1162 2290.9557,530.1606 C2288.9625,530.338 2286.6937,530.5433 2284.1681,530.7769 C2274.0659,531.7113 2259.8563,533.0983 2242.7513,534.9622 C2208.5413,538.69 2162.75,544.3256 2115.075,552.0644 C2019.725,567.5419 1916.84,591.4319 1884,625.2969 C1880.08,629.3394 1876.8219,633.9163 1874.1221,638.8348 C1873.7846,639.4496 1873.4559,640.0698 1873.1356,640.6949 C1873.0556,640.8512 1872.9761,641.0077 1872.8971,641.1646 " fill="none" id="persistence-to-util" style="stroke:#181818;stroke-width:1.0;stroke-dasharray:7.0,7.0;"/><polygon fill="#181818" points="1872.8971,641.1646,1880.5171,634.9249,1875.1456,636.6988,1873.3717,631.3272,1872.8971,641.1646" style="stroke:#181818;stroke-width:1.0;"/><text fill="#000000" font-family="sans-serif" font-size="13" lengthAdjust="spacing" textLength="178" x="1920" y="613.3638">reconstruye desde catálogo</text></g><!--MD5=[2d7083f8d728b846b9f7b2fe3ceda9b3]
@startuml
skinparam packageStyle rectangle
skinparam shadowing false
title Diagrama de paquetes - PokemonApp

package app {
  class Main
  class PokemonApp
}

package controller {
  class JuegoController
  class BatallaController
}

package view {
  class ConsoleView
}

package service {
  class Batalla
  interface BatallaObserver
}

package model {
  class Inventario
  class Objeto
}

package "model.pokemon" as model_pokemon {
  class Entrenador
  class Pokemon
  class Movimiento
  class MovimientoAgua
  class MovimientoAire
  class MovimientoElectrico
  class MovimientoFuego
  class MovimientoPsiquico
  class MovimientoTierra
  enum TipoPokemon
  enum EstadoPokemon
  enum EstadoBatalla
}

package factory {
  abstract class CreadorMovimiento
  class CreadorMovimientoAgua
  class CreadorMovimientoAire
  class CreadorMovimientoElectrico
  class CreadorMovimientoFuego
  class CreadorMovimientoPsiquico
  class CreadorMovimientoTierra
}

package util {
  class PokemonCatalogo
  class ObjetoCatalogo
  class EntrenadorCatalogo
}

package persistence {
  class GameRepository
}

app ..> controller : usa
app ..> view : crea
app ..> persistence : crea

controller ..> view : entrada/salida
controller ..> service : orquesta batalla
controller ..> persistence : guardar/cargar
controller ..> util : catálogos
controller ..> model : inventario/objetos
controller ..> model_pokemon : dominio

view ..> service : implementa observer
view ..> model : muestra
view ..> model_pokemon : muestra

service ..> model_pokemon : lógica de batalla

model ..> model_pokemon : aplica objetos
model_pokemon ..> model : contiene inventario

util ..> factory : crea movimientos
util ..> model : crea objetos/inventario
util ..> model_pokemon : crea pokemon/rivales

factory ..> model_pokemon : crea Movimiento

persistence ..> model : serializa
persistence ..> model_pokemon : serializa
persistence ..> util : reconstruye desde catálogo
@enduml

PlantUML version 1.2022.7(Mon Aug 22 17:01:30 UTC 2022)
(GPL source distribution)
Java Runtime: OpenJDK Runtime Environment
JVM: OpenJDK 64-Bit Server VM
Default Encoding: UTF-8
Language: en
Country: null
--></g></svg>